<?xml version="1.0" encoding="UTF-8"?>
<svg version="1.1" xmlns="http://www.w3.org/2000/svg" width="2272" height="1146">
<path d="M0 0 C1.57285076 -0.01614868 1.57285076 -0.01614868 3.17747629 -0.03262359 C4.33853155 -0.03430122 5.49958682 -0.03597886 6.69582558 -0.03770733 C7.92230045 -0.0471774 9.14877532 -0.05664748 10.4124161 -0.06640452 C13.82804741 -0.09051353 17.24349941 -0.10551935 20.65918374 -0.11655867 C24.33907221 -0.13050919 28.01888691 -0.15576552 31.69872475 -0.17921734 C40.5937945 -0.23306786 49.488896 -0.26685321 58.38407463 -0.29666975 C60.89697826 -0.30517552 63.4098799 -0.31413226 65.92278147 -0.32322764 C81.52890157 -0.37944956 97.13503041 -0.42818712 112.7412262 -0.45737457 C116.35781689 -0.46425379 119.9744074 -0.47121842 123.5909977 -0.47830486 C124.48988463 -0.48005927 125.38877156 -0.48181369 126.31489749 -0.48362126 C140.86310152 -0.51325577 155.41072332 -0.58755124 169.95864885 -0.68012968 C184.89753488 -0.774414 199.83612262 -0.82702329 214.77530444 -0.83949202 C223.16200478 -0.84755964 231.54777313 -0.87396327 239.93417931 -0.94733906 C247.08015975 -1.00977349 254.22502993 -1.03452483 261.37126498 -1.01071946 C265.01508954 -0.99973448 268.65657932 -1.00624141 272.30005455 -1.06135464 C296.42909691 -1.40722559 296.42909691 -1.40722559 303.12977469 4.13363677 C305.34714799 6.34724989 307.21408391 8.75790621 309.07097816 11.27682209 C310.34982748 12.46009497 311.65561544 13.61643652 313.00847816 14.71432209 C317.19129827 18.33826853 321.23369623 22.10937955 325.29119301 25.87203693 C328.80579846 29.12546996 332.36706483 32.31090971 335.98894691 35.44479084 C339.20589609 38.2754647 342.35068496 41.18449225 345.50432777 44.0851717 C349.52061966 47.7777832 353.56451332 51.43822501 357.62566566 55.08150959 C359.32155409 56.60401645 361.01403183 58.13032764 362.70379066 59.65963459 C367.08878706 63.62576566 371.48927611 67.53911778 376.07097816 71.27682209 C379.07308256 69.9224552 381.23512992 68.38998137 383.61004066 66.11666584 C384.59653603 65.18044392 384.59653603 65.18044392 385.60296059 64.22530842 C386.63900429 63.22987019 386.63900429 63.22987019 387.69597816 62.21432209 C389.14188959 60.84118545 390.5885018 59.46878636 392.03582191 58.09713459 C392.73304359 57.43487873 393.43026527 56.77262287 394.14861488 56.09029865 C397.24378366 53.17044678 400.41668551 50.34087231 403.59050941 47.50729084 C406.56651072 44.83123297 409.50797367 42.11945473 412.44597816 39.40182209 C418.14498615 34.13028145 423.86134084 28.87817812 429.58709145 23.63570881 C431.51910557 21.86644415 433.45024167 20.09622291 435.3812809 18.32589436 C436.8708922 16.96025591 438.38616406 15.62272093 439.90512466 14.2898035 C442.00618886 12.38170411 443.46277407 10.72848871 445.13911438 8.38238621 C448.83628613 3.73115571 452.17849271 0.87932169 458.11190653 -0.3565979 C467.091834 -1.35645761 476.12397291 -1.22125089 485.14633465 -1.13183117 C489.30193649 -1.10268254 493.45709594 -1.13723693 497.61264992 -1.16345501 C505.74018936 -1.20455802 513.86656584 -1.1867353 521.99407555 -1.14786592 C528.60086286 -1.11750097 535.20733449 -1.10947605 541.81418419 -1.11727428 C542.75606926 -1.1183824 543.69795434 -1.11949052 544.66838139 -1.12063222 C546.58204274 -1.1230047 548.49570402 -1.12543963 550.40936522 -1.12793633 C568.33305229 -1.14893431 586.25610375 -1.104169 604.1796426 -1.03570053 C619.54826073 -0.97836703 634.91616511 -0.9728754 650.28484535 -1.00638103 C668.14932394 -1.04527953 686.0134053 -1.05541241 703.87789953 -1.01734805 C705.78373419 -1.01334088 707.68956891 -1.00935705 709.59540367 -1.00539684 C710.5330183 -1.00341839 711.47063293 -1.00143993 712.43666012 -0.99940152 C719.03406161 -0.98734178 725.6312629 -0.99538382 732.22865105 -1.0109663 C740.27077002 -1.0292587 748.31206138 -1.01490532 756.35402156 -0.95933548 C760.45490165 -0.93176132 764.55448494 -0.91833403 768.65540695 -0.94406796 C772.414001 -0.96721943 776.17002551 -0.94841596 779.92831676 -0.89692804 C781.92254307 -0.88016931 783.91699131 -0.90725605 785.9110781 -0.93619275 C794.08475475 -0.76797874 798.19804208 0.99169376 803.88975656 6.90927052 C804.60955969 7.69056254 805.32936282 8.47185456 806.07097816 9.27682209 C807.72349463 10.79239694 809.38862328 12.29443894 811.07097816 13.77682209 C812.31234535 14.89443928 812.31234535 14.89443928 813.57879066 16.03463459 C815.21837695 17.50974827 816.85897471 18.98373861 818.50066566 20.45650959 C823.0912838 24.57779936 827.65547784 28.72552922 832.19597816 32.90182209 C835.43315033 35.8790049 838.68235545 38.83635065 842.00847816 41.71432209 C846.19207674 45.33894298 850.23532426 49.11067277 854.29339027 52.8742342 C857.18461945 55.55083247 860.0898722 58.19993388 863.07097816 60.77682209 C866.64449603 63.86579516 870.1080893 67.06524422 873.57097816 70.27682209 C877.65666547 74.06566366 881.77491185 77.79854156 885.98894691 81.44479084 C889.20589609 84.2754647 892.35068496 87.18449225 895.50432777 90.0851717 C900.3270072 94.51918248 905.19367544 98.90298287 910.07097816 103.27682209 C915.47391122 108.12203302 920.8546172 112.98890807 926.19597816 117.90182209 C929.43315033 120.8790049 932.68235545 123.83635065 936.00847816 126.71432209 C940.19129827 130.33826853 944.23369623 134.10937955 948.29119301 137.87203693 C951.80579846 141.12546996 955.36706483 144.31090971 958.98894691 147.44479084 C962.20589609 150.2754647 965.35068496 153.18449225 968.50432777 156.0851717 C973.3270072 160.51918248 978.19367544 164.90298287 983.07097816 169.27682209 C988.47391122 174.12203302 993.8546172 178.98890807 999.19597816 183.90182209 C1002.43315033 186.8790049 1005.68235545 189.83635065 1009.00847816 192.71432209 C1013.19129827 196.33826853 1017.23369623 200.10937955 1021.29119301 203.87203693 C1024.80579846 207.12546996 1028.36706483 210.31090971 1031.98894691 213.44479084 C1035.20589609 216.2754647 1038.35068496 219.18449225 1041.50432777 222.0851717 C1046.3270072 226.51918248 1051.19367544 230.90298287 1056.07097816 235.27682209 C1061.47391122 240.12203302 1066.8546172 244.98890807 1072.19597816 249.90182209 C1075.43315033 252.8790049 1078.68235545 255.83635065 1082.00847816 258.71432209 C1086.19129827 262.33826853 1090.23369623 266.10937955 1094.29119301 269.87203693 C1097.80579846 273.12546996 1101.36706483 276.31090971 1104.98894691 279.44479084 C1108.20589609 282.2754647 1111.35068496 285.18449225 1114.50432777 288.0851717 C1119.3270072 292.51918248 1124.19367544 296.90298287 1129.07097816 301.27682209 C1134.47391122 306.12203302 1139.8546172 310.98890807 1145.19597816 315.90182209 C1148.43315033 318.8790049 1151.68235545 321.83635065 1155.00847816 324.71432209 C1159.19129827 328.33826853 1163.23369623 332.10937955 1167.29119301 335.87203693 C1170.80579846 339.12546996 1174.36706483 342.31090971 1177.98894691 345.44479084 C1181.20589609 348.2754647 1184.35068496 351.18449225 1187.50432777 354.0851717 C1192.3270072 358.51918248 1197.19367544 362.90298287 1202.07097816 367.27682209 C1207.47391122 372.12203302 1212.8546172 376.98890807 1218.19597816 381.90182209 C1221.43315033 384.8790049 1224.68235545 387.83635065 1228.00847816 390.71432209 C1232.19129827 394.33826853 1236.23369623 398.10937955 1240.29119301 401.87203693 C1243.80579846 405.12546996 1247.36706483 408.31090971 1250.98894691 411.44479084 C1254.20589609 414.2754647 1257.35068496 417.18449225 1260.50432777 420.0851717 C1265.3270072 424.51918248 1270.19367544 428.90298287 1275.07097816 433.27682209 C1280.47391122 438.12203302 1285.8546172 442.98890807 1291.19597816 447.90182209 C1294.43315033 450.8790049 1297.68235545 453.83635065 1301.00847816 456.71432209 C1305.19129827 460.33826853 1309.23369623 464.10937955 1313.29119301 467.87203693 C1316.80579846 471.12546996 1320.36706483 474.31090971 1323.98894691 477.44479084 C1327.20589609 480.2754647 1330.35068496 483.18449225 1333.50432777 486.0851717 C1338.3270072 490.51918248 1343.19367544 494.90298287 1348.07097816 499.27682209 C1353.47391122 504.12203302 1358.8546172 508.98890807 1364.19597816 513.90182209 C1367.43315033 516.8790049 1370.68235545 519.83635065 1374.00847816 522.71432209 C1378.19129827 526.33826853 1382.23369623 530.10937955 1386.29119301 533.87203693 C1389.80579846 537.12546996 1393.36706483 540.31090971 1396.98894691 543.44479084 C1400.20589609 546.2754647 1403.35068496 549.18449225 1406.50432777 552.0851717 C1411.3270072 556.51918248 1416.19367544 560.90298287 1421.07097816 565.27682209 C1426.47391122 570.12203302 1431.8546172 574.98890807 1437.19597816 579.90182209 C1440.43315033 582.8790049 1443.68235545 585.83635065 1447.00847816 588.71432209 C1451.19129827 592.33826853 1455.23369623 596.10937955 1459.29119301 599.87203693 C1462.80579846 603.12546996 1466.36706483 606.31090971 1469.98894691 609.44479084 C1473.20589609 612.2754647 1476.35068496 615.18449225 1479.50432777 618.0851717 C1484.3270072 622.51918248 1489.19367544 626.90298287 1494.07097816 631.27682209 C1500.01425694 636.60660112 1505.92351481 641.96981532 1511.7941227 647.37936115 C1514.58909997 649.94653177 1517.4186636 652.45684194 1520.32097816 654.90182209 C1521.22847816 655.68557209 1522.13597816 656.46932209 1523.07097816 657.27682209 C1523.07097816 657.60682209 1523.07097816 657.93682209 1523.07097816 658.27682209 C1479.97847122 658.55164231 1436.88606561 658.76301555 1393.79285555 658.88960604 C1388.70237481 658.90461406 1383.61189579 658.92014597 1378.52141762 658.93600178 C1377.50801863 658.9391495 1376.49461964 658.94229723 1375.4505116 658.94554034 C1359.0534476 658.99771999 1342.65688977 659.09231417 1326.26012579 659.20265564 C1309.4285599 659.31497626 1292.59725863 659.38154881 1275.76533335 659.40588403 C1265.38341256 659.42232901 1255.00292255 659.47421554 1244.62144234 659.57181969 C1237.49705922 659.63537889 1230.37341293 659.65439534 1223.24876706 659.63883862 C1219.14096062 659.6311707 1215.03564908 659.64270187 1210.92828941 659.70728779 C1183.7132964 660.114351 1183.7132964 660.114351 1176.47071713 654.11750627 C1174.04519384 651.67037764 1172.09563956 649.0682954 1170.07097816 646.27682209 C1168.37882884 644.6743071 1166.65486963 643.10378433 1164.88347816 641.58932209 C1164.08554848 640.8738924 1163.28761879 640.15846272 1162.46550941 639.42135334 C1161.6753141 638.71365803 1160.88511879 638.00596272 1160.07097816 637.27682209 C1158.40392117 635.77725591 1156.73725821 634.27725156 1155.07097816 632.77682209 C1152.59595583 630.54853095 1150.12026063 628.32103369 1147.64129066 626.09713459 C1143.05067253 621.97584482 1138.48647848 617.82811496 1133.94597816 613.65182209 C1130.708806 610.67463928 1127.45960088 607.71729353 1124.13347816 604.83932209 C1119.94987959 601.2147012 1115.90663207 597.44297142 1111.84856606 593.67940998 C1108.95733688 591.00281171 1106.05208413 588.3537103 1103.07097816 585.77682209 C1099.4974603 582.68784902 1096.03386703 579.48839996 1092.57097816 576.27682209 C1088.48529086 572.48798052 1084.36704447 568.75510262 1080.15300941 565.10885334 C1076.93606024 562.27817948 1073.79127137 559.36915193 1070.63762856 556.46847248 C1065.81494913 552.0344617 1060.94828089 547.65066131 1056.07097816 543.27682209 C1050.66804511 538.43161116 1045.28733913 533.56473611 1039.94597816 528.65182209 C1036.708806 525.67463928 1033.45960088 522.71729353 1030.13347816 519.83932209 C1025.95065806 516.21537565 1021.90826009 512.44426463 1017.85076332 508.68160725 C1014.33615787 505.42817422 1010.7748915 502.24273447 1007.15300941 499.10885334 C1003.93606024 496.27817948 1000.79127137 493.36915193 997.63762856 490.46847248 C992.81494913 486.0344617 987.94828089 481.65066131 983.07097816 477.27682209 C977.66804511 472.43161116 972.28733913 467.56473611 966.94597816 462.65182209 C963.708806 459.67463928 960.45960088 456.71729353 957.13347816 453.83932209 C952.95065806 450.21537565 948.90826009 446.44426463 944.85076332 442.68160725 C941.33615787 439.42817422 937.7748915 436.24273447 934.15300941 433.10885334 C930.93606024 430.27817948 927.79127137 427.36915193 924.63762856 424.46847248 C919.81494913 420.0344617 914.94828089 415.65066131 910.07097816 411.27682209 C904.66804511 406.43161116 899.28733913 401.56473611 893.94597816 396.65182209 C890.708806 393.67463928 887.45960088 390.71729353 884.13347816 387.83932209 C879.95065806 384.21537565 875.90826009 380.44426463 871.85076332 376.68160725 C868.33615787 373.42817422 864.7748915 370.24273447 861.15300941 367.10885334 C857.93606024 364.27817948 854.79127137 361.36915193 851.63762856 358.46847248 C846.81494913 354.0344617 841.94828089 349.65066131 837.07097816 345.27682209 C831.66804511 340.43161116 826.28733913 335.56473611 820.94597816 330.65182209 C817.708806 327.67463928 814.45960088 324.71729353 811.13347816 321.83932209 C806.95065806 318.21537565 802.90826009 314.44426463 798.85076332 310.68160725 C795.33615787 307.42817422 791.7748915 304.24273447 788.15300941 301.10885334 C784.93606024 298.27817948 781.79127137 295.36915193 778.63762856 292.46847248 C773.81494913 288.0344617 768.94828089 283.65066131 764.07097816 279.27682209 C758.66804511 274.43161116 753.28733913 269.56473611 747.94597816 264.65182209 C744.708806 261.67463928 741.45960088 258.71729353 738.13347816 255.83932209 C733.95065806 252.21537565 729.90826009 248.44426463 725.85076332 244.68160725 C722.33615787 241.42817422 718.7748915 238.24273447 715.15300941 235.10885334 C711.93606024 232.27817948 708.79127137 229.36915193 705.63762856 226.46847248 C700.81494913 222.0344617 695.94828089 217.65066131 691.07097816 213.27682209 C685.66804511 208.43161116 680.28733913 203.56473611 674.94597816 198.65182209 C671.708806 195.67463928 668.45960088 192.71729353 665.13347816 189.83932209 C661.5413883 186.72717743 658.05553247 183.50802624 654.57097816 180.27682209 C649.8064172 175.86025759 644.98933506 171.52214068 640.07097816 167.27682209 C638.57017559 165.96523988 637.07016749 164.65274799 635.57097816 163.33932209 C634.90066566 162.75279865 634.23035316 162.16627522 633.53972816 161.56197834 C633.05504066 161.13787678 632.57035316 160.71377522 632.07097816 160.27682209 C626.95700627 164.46098091 622.29477761 168.97190896 617.6871891 173.69772053 C615.02382312 176.40753019 612.3002123 178.96850966 609.41082191 181.43697834 C603.84291121 186.25270133 598.73747366 191.5401251 593.57097816 196.77682209 C587.87913943 202.54600059 582.21262536 208.26066104 576.04558754 213.5292635 C572.0431779 217.07145541 568.32884121 220.91667711 564.57097816 224.71432209 C563.74855629 225.54125568 562.92613441 226.36818928 562.07879066 227.22018147 C560.07385704 229.23677168 558.07131563 231.25567445 556.07097816 233.27682209 C557.1750602 234.37897053 557.1750602 234.37897053 558.30144691 235.50338459 C559.95524094 237.15951119 561.60511468 238.81958917 563.24675941 240.48775959 C567.317391 244.61048336 571.45380788 248.56510725 575.84832191 252.33932209 C578.59091195 254.73005084 581.26952505 257.18774568 583.94597816 259.65182209 C589.28705422 264.5650427 594.66804959 269.43161517 600.07097816 274.27682209 C605.47391175 279.1220335 610.85458355 283.98894425 616.19597816 288.90182209 C619.45488311 291.8986222 622.72597366 294.87596756 626.07097816 297.77682209 C629.94914829 301.14004847 633.72625628 304.6101788 637.50408363 308.08492756 C642.32681728 312.51904936 647.19358995 316.9029062 652.07097816 321.27682209 C657.47391122 326.12203302 662.8546172 330.98890807 668.19597816 335.90182209 C671.43315033 338.8790049 674.68235545 341.83635065 678.00847816 344.71432209 C682.19129827 348.33826853 686.23369623 352.10937955 690.29119301 355.87203693 C693.80579846 359.12546996 697.36706483 362.31090971 700.98894691 365.44479084 C704.20589609 368.2754647 707.35068496 371.18449225 710.50432777 374.0851717 C715.3270072 378.51918248 720.19367544 382.90298287 725.07097816 387.27682209 C730.47391175 392.1220335 735.85458355 396.98894425 741.19597816 401.90182209 C744.45488311 404.8986222 747.72597366 407.87596756 751.07097816 410.77682209 C754.94914829 414.14004847 758.72625628 417.6101788 762.50408363 421.08492756 C767.32681728 425.51904936 772.19358995 429.9029062 777.07097816 434.27682209 C782.47391122 439.12203302 787.8546172 443.98890807 793.19597816 448.90182209 C796.43315033 451.8790049 799.68235545 454.83635065 803.00847816 457.71432209 C807.19129827 461.33826853 811.23369623 465.10937955 815.29119301 468.87203693 C818.80579846 472.12546996 822.36706483 475.31090971 825.98894691 478.44479084 C829.20589609 481.2754647 832.35068496 484.18449225 835.50432777 487.0851717 C840.3270072 491.51918248 845.19367544 495.90298287 850.07097816 500.27682209 C855.47391122 505.12203302 860.8546172 509.98890807 866.19597816 514.90182209 C869.43315033 517.8790049 872.68235545 520.83635065 876.00847816 523.71432209 C880.19129827 527.33826853 884.23369623 531.10937955 888.29119301 534.87203693 C891.80579846 538.12546996 895.36706483 541.31090971 898.98894691 544.44479084 C902.20589609 547.2754647 905.35068496 550.18449225 908.50432777 553.0851717 C913.3270072 557.51918248 918.19367544 561.90298287 923.07097816 566.27682209 C928.47391122 571.12203302 933.8546172 575.98890807 939.19597816 580.90182209 C942.43315033 583.8790049 945.68235545 586.83635065 949.00847816 589.71432209 C953.19129827 593.33826853 957.23369623 597.10937955 961.29119301 600.87203693 C964.80579846 604.12546996 968.36706483 607.31090971 971.98894691 610.44479084 C975.20589609 613.2754647 978.35068496 616.18449225 981.50432777 619.0851717 C986.3270072 623.51918248 991.19367544 627.90298287 996.07097816 632.27682209 C1004.93387193 640.2248365 1004.93387193 640.2248365 1009.15691566 644.11275959 C1009.6830143 644.59696369 1010.20911293 645.08116779 1010.75115395 645.58004475 C1012.2392708 646.95151916 1013.7254926 648.32504895 1015.21160316 649.69869709 C1017.25477311 651.5408995 1019.30315211 653.30427694 1021.43035316 655.04244709 C1022.30175941 655.77979084 1023.17316566 656.51713459 1024.07097816 657.27682209 C1024.07097816 657.60682209 1024.07097816 657.93682209 1024.07097816 658.27682209 C980.96141728 658.52870646 937.85194144 658.72248222 894.74179022 658.83854071 C889.65002094 658.85229817 884.5582531 658.86653574 879.46648598 658.88107014 C877.94599403 658.88539826 877.94599403 658.88539826 876.39478508 658.88981382 C859.99062213 658.93765318 843.58688406 659.02436912 827.182973 659.12550285 C810.3457568 659.22844073 793.50876281 659.28948352 776.67124486 659.31179553 C766.28481495 659.32687465 755.899586 659.37446336 745.51352587 659.46390323 C738.38730631 659.52213755 731.2617058 659.53960375 724.13526568 659.52533724 C720.02571517 659.51830423 715.91825988 659.52892989 711.80908394 659.58808231 C708.03988834 659.64194211 704.27417906 659.64412321 700.50481692 659.60670993 C698.50926825 659.59991958 696.51375589 659.64708757 694.51881289 659.69671649 C686.08434541 659.54382742 681.81889897 657.35771515 676.05677347 651.52900268 C674.72073632 650.1186187 673.39572136 648.69781952 672.07097816 647.27682209 C670.37849787 645.7177681 668.6727901 644.1727624 666.94597816 642.65182209 C666.13902504 641.92736897 665.33207191 641.20291584 664.50066566 640.45650959 C663.69886879 639.73721272 662.89707191 639.01791584 662.07097816 638.27682209 C659.567854 636.02479502 657.06551202 633.77190086 654.56316566 631.51900959 C652.92357938 630.04389591 651.28298162 628.56990557 649.64129066 627.09713459 C645.05067253 622.97584482 640.48647848 618.82811496 635.94597816 614.65182209 C632.708806 611.67463928 629.45960088 608.71729353 626.13347816 605.83932209 C621.94987959 602.2147012 617.90663207 598.44297142 613.84856606 594.67940998 C610.95733688 592.00281171 608.05208413 589.3537103 605.07097816 586.77682209 C601.4974603 583.68784902 598.03386703 580.48839996 594.57097816 577.27682209 C590.48529086 573.48798052 586.36704447 569.75510262 582.15300941 566.10885334 C578.93606024 563.27817948 575.79127137 560.36915193 572.63762856 557.46847248 C567.81494913 553.0344617 562.94828089 548.65066131 558.07097816 544.27682209 C552.66804511 539.43161116 547.28733913 534.56473611 541.94597816 529.65182209 C538.708806 526.67463928 535.45960088 523.71729353 532.13347816 520.83932209 C527.95065806 517.21537565 523.90826009 513.44426463 519.85076332 509.68160725 C516.33615787 506.42817422 512.7748915 503.24273447 509.15300941 500.10885334 C505.93606024 497.27817948 502.79127137 494.36915193 499.63762856 491.46847248 C494.81494913 487.0344617 489.94828089 482.65066131 485.07097816 478.27682209 C479.66804511 473.43161116 474.28733913 468.56473611 468.94597816 463.65182209 C465.708806 460.67463928 462.45960088 457.71729353 459.13347816 454.83932209 C454.95065806 451.21537565 450.90826009 447.44426463 446.85076332 443.68160725 C443.33615787 440.42817422 439.7748915 437.24273447 436.15300941 434.10885334 C432.93606024 431.27817948 429.79127137 428.36915193 426.63762856 425.46847248 C421.81494419 421.03445716 416.94788059 416.65111299 412.07097816 412.27682209 C405.04803367 405.96845382 398.05072657 399.63290476 391.07097816 393.27682209 C385.06174375 398.28581983 379.59442197 403.68624068 374.11980629 409.26705647 C370.24830794 413.1836159 366.27601912 416.87798983 362.10393715 420.47091389 C358.438099 423.72733334 355.01612286 427.22770806 351.57097816 430.71432209 C350.84394691 431.44586506 350.11691566 432.17740803 349.36785316 432.93111897 C347.59988318 434.71072033 345.83431439 436.49263127 344.07097816 438.27682209 C348.31927058 443.34862965 352.75455198 448.11423664 357.44597816 452.77682209 C358.37797035 453.71461506 358.37797035 453.71461506 359.32879066 454.67135334 C362.39531881 457.73154568 365.50244315 460.68239323 368.79754066 463.49557209 C375.08742438 468.92836939 380.81777536 474.96848518 386.65300941 480.87936115 C391.95412754 486.24296144 397.25203742 491.52268205 402.99285316 496.42135334 C408.25859427 501.1229079 413.12378945 506.28279354 418.08025551 511.30660725 C424.88711387 518.24048409 424.88711387 518.24048409 432.07097816 524.77682209 C438.08542813 529.91532139 443.52850062 535.67941603 449.08025551 541.30660725 C455.88711387 548.24048409 455.88711387 548.24048409 463.07097816 554.77682209 C469.08542813 559.91532139 474.52850062 565.67941603 480.08025551 571.30660725 C486.88711387 578.24048409 486.88711387 578.24048409 494.07097816 584.77682209 C500.08542813 589.91532139 505.52850062 595.67941603 511.08025551 601.30660725 C517.88711387 608.24048409 517.88711387 608.24048409 525.07097816 614.77682209 C531.08542813 619.91532139 536.52850062 625.67941603 542.08025551 631.30660725 C547.36467743 636.65629015 552.65614059 641.92548447 558.37761879 646.81490803 C560.71004667 648.82854386 562.89650543 650.9697991 565.07097816 653.15182209 C565.83410316 653.91236897 566.59722816 654.67291584 567.38347816 655.45650959 C569.07097816 657.27682209 569.07097816 657.27682209 569.07097816 658.27682209 C522.82772034 658.59748795 476.58458052 658.84406907 430.34042945 658.9917367 C424.876994 659.00924593 419.41356074 659.02736651 413.95012856 659.04586506 C412.86248882 659.0495374 411.77484908 659.05320975 410.65425057 659.05699338 C393.05892472 659.11785973 375.46424132 659.22821388 357.86929619 659.35696124 C339.80601563 659.48803005 321.74307078 659.56567576 303.67933422 659.59406102 C292.5387275 659.61324121 281.39993674 659.67374312 270.25988925 659.78765263 C262.61356757 659.86184012 254.96818021 659.88398325 247.32152503 659.86584137 C242.91346769 659.85690046 238.50857529 659.87028454 234.10108566 659.94569874 C204.92203774 660.42057568 204.92203774 660.42057568 196.60308272 653.42562211 C194.29333717 651.09212023 192.26984201 648.67545094 190.35891068 646.00747418 C188.34446295 643.30057135 185.95658312 641.10219349 183.51238441 638.78072834 C181.88335292 637.13629229 180.25696692 635.48923052 178.63347816 633.83932209 C172.09691847 627.17366278 172.09691847 627.17366278 165.19207191 620.89791584 C159.1449477 615.70766242 153.65459094 609.91592233 148.06170082 604.24703693 C141.25484246 597.31316009 141.25484246 597.31316009 134.07097816 590.77682209 C128.0565282 585.63832279 122.61345571 579.87422815 117.06170082 574.24703693 C110.25484246 567.31316009 110.25484246 567.31316009 103.07097816 560.77682209 C97.0565282 555.63832279 91.61345571 549.87422815 86.06170082 544.24703693 C79.27133034 537.32775645 79.27133034 537.32775645 72.10222816 530.80807209 C65.87337607 525.4863964 60.24057371 519.50046795 54.48894691 513.67428303 C49.18782879 508.31068274 43.88991891 503.03096213 38.14910316 498.13229084 C32.88336206 493.43073628 28.01816688 488.27085064 23.06170082 483.24703693 C16.26308478 476.32046036 16.26308478 476.32046036 9.08660316 469.79244709 C3.51841072 465.03604451 -1.53902277 459.73528927 -6.67902184 454.52682209 C-8.71253807 452.46659091 -10.74944097 450.40979334 -12.78839684 448.35494709 C-14.12596031 446.99998127 -14.12596031 446.99998127 -15.49054527 445.6176424 C-17.80898844 443.27318422 -17.80898844 443.27318422 -20.2503109 441.64693928 C-20.80428551 441.19480061 -21.35826012 440.74266193 -21.92902184 440.27682209 C-21.92902184 437.27682209 -21.92902184 437.27682209 -20.70636559 435.94479084 C-20.09921715 435.45623615 -19.49206871 434.96768147 -18.86652184 434.46432209 C-14.62311973 430.91433561 -10.58252093 427.19083504 -6.55402184 423.40182209 C-1.56630143 418.72525998 3.45798999 414.09969231 8.55535316 409.54244709 C12.10366614 406.34676149 15.60675542 403.10306944 19.11223793 399.86056232 C24.25588393 395.10289709 29.41939756 390.36722411 34.58709145 385.63570881 C37.08262223 383.35039713 39.57672344 381.06352629 42.07097816 378.77682209 C43.07097141 377.86014805 44.07097141 376.94348139 45.07097816 376.02682209 C45.56597816 375.57307209 46.06097816 375.11932209 46.57097816 374.65182209 C183.07097817 249.52682209 183.07097817 249.52682209 184.57317543 248.14986897 C185.56593241 247.23980128 186.55860915 246.32964606 187.55120277 245.41940022 C190.16134533 243.02601839 192.77316144 240.63449686 195.38738441 238.24557209 C195.93072426 237.7486385 196.4740641 237.2517049 197.03386879 236.73971272 C198.54712506 235.35579459 200.06098648 233.97253826 201.57488441 232.58932209 C203.45071352 230.85146476 205.27165352 229.09150882 207.07097816 227.27682209 C196.75260064 217.54177888 196.75260064 217.54177888 186.15691566 208.11275959 C183.24734694 205.55190322 180.4125225 202.91270192 177.57097816 200.27682209 C173.51616456 196.51615195 169.43392472 192.80724312 165.23894691 189.20260334 C163.41629937 187.58356687 161.64034184 185.93449222 159.87175941 184.25729084 C159.29748207 183.71588459 158.72320473 183.17447834 158.13152504 182.61666584 C156.99041094 181.53802614 155.85471345 180.45361883 154.72527504 179.36275959 C151.68690912 176.49833179 149.0852455 174.50567944 145.07097816 173.27682209 C144.51410316 173.84529865 143.95722816 174.41377522 143.38347816 174.99947834 C139.15172984 179.28126423 134.86901549 183.41124115 130.30144691 187.33150959 C127.51232034 189.76405781 124.79178598 192.2685906 122.07097816 194.77682209 C118.79260207 197.79627235 115.50516307 200.79884825 112.13347816 203.71432209 C107.94987959 207.33894298 103.90663207 211.11067277 99.84856606 214.8742342 C96.36026481 218.1035808 92.82363636 221.26181246 89.22722816 224.37057209 C86.29857454 226.95967167 83.43699639 229.6187689 80.57097816 232.27682209 C76.51082853 236.04235769 72.41686414 239.74902235 68.22722816 243.37057209 C65.29857404 245.95967211 62.43701144 248.61878443 59.57097816 251.27682209 C55.48529086 255.06566366 51.36704447 258.79854156 47.15300941 262.44479084 C43.93606024 265.2754647 40.79127137 268.18449225 37.63762856 271.0851717 C32.01669317 276.25310552 26.33365944 281.35093372 20.64910316 286.44869709 C16.05649712 290.57326685 11.48918368 294.72304102 6.94597816 298.90182209 C3.708806 301.8790049 0.45960088 304.83635065 -2.86652184 307.71432209 C-6.45860775 310.82646333 -9.94454176 314.04554295 -13.42902184 317.27682209 C-17.51473063 321.06564145 -21.63295457 324.79854073 -25.84699059 328.44479084 C-29.06393976 331.2754647 -32.20872863 334.18449225 -35.36237144 337.0851717 C-40.98330683 342.25310552 -46.66634056 347.35093372 -52.35089684 352.44869709 C-56.94350288 356.57326685 -61.51081632 360.72304102 -66.05402184 364.90182209 C-69.291194 367.8790049 -72.54039912 370.83635065 -75.86652184 373.71432209 C-79.45860775 376.82646333 -82.94454176 380.04554295 -86.42902184 383.27682209 C-90.51473063 387.06564145 -94.63295457 390.79854073 -98.84699059 394.44479084 C-102.06393976 397.2754647 -105.20872863 400.18449225 -108.36237144 403.0851717 C-113.98330683 408.25310552 -119.66634056 413.35093372 -125.35089684 418.44869709 C-129.94350288 422.57326685 -134.51081632 426.72304102 -139.05402184 430.90182209 C-142.291194 433.8790049 -145.54039912 436.83635065 -148.86652184 439.71432209 C-152.45860775 442.82646333 -155.94454176 446.04554295 -159.42902184 449.27682209 C-163.51473063 453.06564145 -167.63295457 456.79854073 -171.84699059 460.44479084 C-175.06393976 463.2754647 -178.20872863 466.18449225 -181.36237144 469.0851717 C-186.98330683 474.25310552 -192.66634056 479.35093372 -198.35089684 484.44869709 C-202.94350288 488.57326685 -207.51081632 492.72304102 -212.05402184 496.90182209 C-215.291194 499.8790049 -218.54039912 502.83635065 -221.86652184 505.71432209 C-225.45860775 508.82646333 -228.94454176 512.04554295 -232.42902184 515.27682209 C-236.51473063 519.06564145 -240.63295457 522.79854073 -244.84699059 526.44479084 C-248.06393976 529.2754647 -251.20872863 532.18449225 -254.36237144 535.0851717 C-259.98330683 540.25310552 -265.66634056 545.35093372 -271.35089684 550.44869709 C-275.94350288 554.57326685 -280.51081632 558.72304102 -285.05402184 562.90182209 C-288.291194 565.8790049 -291.54039912 568.83635065 -294.86652184 571.71432209 C-298.45860775 574.82646333 -301.94454176 578.04554295 -305.42902184 581.27682209 C-309.51473063 585.06564145 -313.63295457 588.79854073 -317.84699059 592.44479084 C-321.06393976 595.2754647 -324.20872863 598.18449225 -327.36237144 601.0851717 C-332.98330683 606.25310552 -338.66634056 611.35093372 -344.35089684 616.44869709 C-348.94350288 620.57326685 -353.51081632 624.72304102 -358.05402184 628.90182209 C-361.291194 631.8790049 -364.54039912 634.83635065 -367.86652184 637.71432209 C-371.45860972 640.82646504 -374.94450466 644.04558044 -378.42902184 647.27682209 C-382.54757374 651.09533151 -386.69277178 654.86754474 -390.94074059 658.54244709 C-394.98298661 662.06849274 -398.94937938 665.68046487 -402.92902184 669.27682209 C-397.56754796 675.97866444 -391.29965954 681.56919193 -384.92902184 687.27682209 C-384.05503746 688.06572834 -383.18105309 688.85463459 -382.28058434 689.66744709 C-379.83389167 691.87487328 -377.38233312 694.07675584 -374.92902184 696.27682209 C-369.52608878 701.12203302 -364.1453828 705.98890807 -358.80402184 710.90182209 C-355.56684967 713.8790049 -352.31764455 716.83635065 -348.99152184 719.71432209 C-344.80870173 723.33826853 -340.76630377 727.10937955 -336.70880699 730.87203693 C-333.19420154 734.12546996 -329.63293517 737.31090971 -326.01105309 740.44479084 C-322.79410391 743.2754647 -319.64931504 746.18449225 -316.49567223 749.0851717 C-311.6729928 753.51918248 -306.80632456 757.90298287 -301.92902184 762.27682209 C-296.52608825 767.1220335 -291.14541645 771.98894425 -285.80402184 776.90182209 C-282.54511689 779.8986222 -279.27402634 782.87596756 -275.92902184 785.77682209 C-272.05085171 789.14004847 -268.27374372 792.6101788 -264.49591637 796.08492756 C-259.67318272 800.51904936 -254.80641005 804.9029062 -249.92902184 809.27682209 C-244.52608825 814.1220335 -239.14541645 818.98894425 -233.80402184 823.90182209 C-230.54511689 826.8986222 -227.27402634 829.87596756 -223.92902184 832.77682209 C-220.05085171 836.14004847 -216.27374372 839.6101788 -212.49591637 843.08492756 C-207.67318272 847.51904936 -202.80641005 851.9029062 -197.92902184 856.27682209 C-192.52608825 861.1220335 -187.14541645 865.98894425 -181.80402184 870.90182209 C-178.54511689 873.8986222 -175.27402634 876.87596756 -171.92902184 879.77682209 C-168.05085171 883.14004847 -164.27374372 886.6101788 -160.49591637 890.08492756 C-155.67318272 894.51904936 -150.80641005 898.9029062 -145.92902184 903.27682209 C-140.52608878 908.12203302 -135.1453828 912.98890807 -129.80402184 917.90182209 C-126.56684967 920.8790049 -123.31764455 923.83635065 -119.99152184 926.71432209 C-116.39943296 929.8264659 -112.91355757 933.04559919 -109.42902184 936.27682209 C-105.28759203 940.11615586 -101.12168249 943.91298114 -96.85089684 947.60885334 C-93.17884461 950.79577671 -89.5588094 954.04194197 -85.92902184 957.27682209 C-82.89924755 955.92451022 -80.8442957 954.42201666 -78.53839684 952.04635334 C-77.9106234 951.40762287 -77.28284996 950.7688924 -76.63605309 950.11080647 C-75.99023277 949.44371662 -75.34441246 948.77662678 -74.67902184 948.08932209 C-70.94873263 944.25604944 -67.23316569 940.48268124 -63.16339684 937.00729084 C-57.62323837 932.23749748 -52.55958936 926.97710292 -47.42902184 921.77682209 C-41.77675467 916.04775285 -36.14845047 910.38172881 -30.02472496 905.14986897 C-25.28665907 900.91519498 -20.89079808 896.29922422 -16.42902184 891.77682209 C-10.76661953 886.03747999 -5.12825392 880.35992243 1.00652504 875.11861897 C5.56289939 871.05366058 9.78520386 866.62378012 14.07097816 862.27682209 C24.57682685 851.62099188 24.57682685 851.62099188 29.03972816 847.80807209 C34.52179893 843.11872439 39.50822922 837.90836283 44.57097816 832.77682209 C50.22324533 827.04775285 55.85154953 821.38172881 61.97527504 816.14986897 C66.71334093 811.91519498 71.10920192 807.29922422 75.57097816 802.77682209 C81.23338047 797.03747999 86.87174608 791.35992243 93.00652504 786.11861897 C97.56289939 782.05366058 101.78520386 777.62378012 106.07097816 773.27682209 C116.57682685 762.62099188 116.57682685 762.62099188 121.03972816 758.80807209 C126.52179893 754.11872439 131.50822922 748.90836283 136.57097816 743.77682209 C142.22324533 738.04775285 147.85154953 732.38172881 153.97527504 727.14986897 C158.71334093 722.91519498 163.10920192 718.29922422 167.57097816 713.77682209 C169.55748112 711.76332686 171.54755416 709.75345487 173.53972816 707.74557209 C174.84587074 706.42202717 174.84587074 706.42202717 176.17840004 705.07174397 C178.29751736 702.96350141 180.52835148 701.06199612 182.82768536 699.15319443 C185.75622142 696.61985211 188.06958166 694.08520739 190.32518864 690.9423275 C196.12481909 683.26855057 201.6722078 678.18390807 211.43905258 676.73606396 C219.89717002 675.9156501 228.41843917 676.1270058 236.90228498 676.30370653 C241.36894086 676.37776638 245.835234 676.35223287 250.30233192 676.33936787 C258.02421423 676.33049327 265.74363732 676.383401 273.46490097 676.47941113 C284.62782329 676.61812553 295.78956783 676.66190052 306.95325851 676.68320698 C325.06893593 676.72032855 343.18330515 676.83322633 361.29827309 676.99435139 C378.88544652 677.15061836 396.47226346 677.27084045 414.05999184 677.3429842 C415.68867247 677.34968365 415.68867247 677.34968365 417.35025574 677.35651844 C422.79783873 677.37870558 428.24542423 677.40018825 433.6930114 677.4213208 C478.81990597 677.59728914 523.94537425 677.89647626 569.07097816 678.27682209 C567.99641007 681.50052638 567.46541506 682.0225113 564.94597816 684.08932209 C560.73944375 687.6527712 556.71268986 691.37813749 552.69597816 695.15182209 C547.70796767 699.82808193 542.68397493 704.45394419 537.58660316 709.01119709 C534.03829019 712.20688269 530.53520091 715.45057474 527.0297184 718.69308186 C521.8860724 723.45074709 516.72255877 728.18642007 511.55486488 732.91793537 C509.0593341 735.20324705 506.56523289 737.4901179 504.07097816 739.77682209 C503.07098492 740.69349613 502.07098492 741.6101628 501.07097816 742.52682209 C500.57597816 742.98057209 500.08097816 743.43432209 499.57097816 743.90182209 C490.07097816 752.61015542 480.57097816 761.31848876 471.07097816 770.02682209 C470.57581703 770.48073322 470.0806559 770.93464436 469.57048988 771.40231037 C468.57217155 772.31740842 467.5737993 773.23244764 466.5753727 774.14742756 C464.04919396 776.46261061 461.52400984 778.77886219 459.00066566 781.09713459 C454.39748052 785.3244896 449.78684041 789.54208292 445.13347816 793.71432209 C440.16585433 798.17326124 435.26414565 802.7012054 430.36394691 807.23385334 C425.77527088 811.47753641 421.16466213 815.6972275 416.55486488 819.91793537 C414.0593341 822.20324705 411.56523289 824.4901179 409.07097816 826.77682209 C408.07098492 827.69349613 407.07098492 828.6101628 406.07097816 829.52682209 C405.57597816 829.98057209 405.08097816 830.43432209 404.57097816 830.90182209 C330.32097816 898.96432209 330.32097816 898.96432209 184.07097816 1033.02682209 C183.57581703 1033.48073322 183.0806559 1033.93464436 182.57048988 1034.40231037 C181.57217155 1035.31740842 180.5737993 1036.23244764 179.5753727 1037.14742756 C177.04919396 1039.46261061 174.52400984 1041.77886219 172.00066566 1044.09713459 C167.39748052 1048.3244896 162.78684041 1052.54208292 158.13347816 1056.71432209 C153.16585433 1061.17326124 148.26414565 1065.7012054 143.36394691 1070.23385334 C138.77527088 1074.47753641 134.16466213 1078.6972275 129.55486488 1082.91793537 C127.0593341 1085.20324705 124.56523289 1087.4901179 122.07097816 1089.77682209 C121.07098492 1090.69349613 120.07098492 1091.6101628 119.07097816 1092.52682209 C118.57597816 1092.98057209 118.08097816 1093.43432209 117.57097816 1093.90182209 C113.07097815 1098.0268221 113.07097815 1098.0268221 111.56829262 1099.4042635 C110.57721737 1100.31276261 109.5861688 1101.22129083 108.59514809 1102.12984943 C105.95882757 1104.54673005 103.32192555 1106.96297253 100.68425941 1109.37838459 C100.13189613 1109.88434162 99.57953285 1110.39029865 99.01043129 1110.91158772 C97.94549605 1111.88703259 96.88039822 1112.8623 95.81511879 1113.83736897 C93.41041716 1116.02270674 93.41041716 1116.02270674 91.07097816 1118.27682209 C89.27460204 1118.38511212 87.47394244 1118.42263999 85.67433739 1118.43338966 C84.49600893 1118.4427811 83.31768047 1118.45217253 82.10364509 1118.46184856 C80.79250306 1118.46712115 79.48136104 1118.47239375 78.13048744 1118.47782612 C76.73645465 1118.48684526 75.34242444 1118.4962714 73.94839692 1118.50607222 C70.09923651 1118.53172824 66.25006679 1118.55085779 62.40086365 1118.56879628 C59.10351962 1118.58493366 55.80620146 1118.60473783 52.50887737 1118.62448183 C21.22991316 1118.8108554 -10.04967734 1118.90476045 -41.32908058 1118.98069954 C-45.40406147 1118.99076809 -49.47904184 1119.001019 -53.55402184 1119.01144123 C-54.56685532 1119.01402345 -55.57968881 1119.01660568 -56.62321422 1119.01926615 C-73.01376424 1119.06235018 -89.40375936 1119.15073684 -105.79400972 1119.25679115 C-122.62110203 1119.36476832 -139.44790656 1119.42713761 -156.27533698 1119.44655436 C-165.72350876 1119.458698 -175.1706584 1119.49136723 -184.61848259 1119.57614803 C-192.66951303 1119.64837726 -200.71939738 1119.67978439 -208.77074614 1119.65835182 C-212.87651814 1119.64870418 -216.97980785 1119.65821755 -221.08516884 1119.72074604 C-248.2860852 1120.11431509 -248.2860852 1120.11431509 -255.58619285 1114.05844945 C-257.99652782 1111.62709935 -259.93705295 1109.06389888 -261.92902184 1106.27682209 C-263.22424747 1105.06798817 -264.54909601 1103.88798977 -265.92902184 1102.77682209 C-270.09468345 1099.17599595 -274.11502231 1095.42291235 -278.15167809 1091.67916584 C-281.04283801 1089.00266281 -283.94800315 1086.35363485 -286.92902184 1083.77682209 C-291.09468345 1080.17599595 -295.11502231 1076.42291235 -299.15167809 1072.67916584 C-302.04283801 1070.00266281 -304.94800315 1067.35363485 -307.92902184 1064.77682209 C-311.5025397 1061.68784902 -314.96613297 1058.48839996 -318.42902184 1055.27682209 C-322.51470914 1051.48798052 -326.63295553 1047.75510262 -330.84699059 1044.10885334 C-334.06393976 1041.27817948 -337.20872863 1038.36915193 -340.36237144 1035.46847248 C-345.18505087 1031.0344617 -350.05171911 1026.65066131 -354.92902184 1022.27682209 C-360.33195489 1017.43161116 -365.71266087 1012.56473611 -371.05402184 1007.65182209 C-374.291194 1004.67463928 -377.54039912 1001.71729353 -380.86652184 998.83932209 C-385.05012041 995.2147012 -389.09336793 991.44297142 -393.15143394 987.67940998 C-396.04266312 985.00281171 -398.94791587 982.3537103 -401.92902184 979.77682209 C-405.5025397 976.68784902 -408.96613297 973.48839996 -412.42902184 970.27682209 C-416.51470914 966.48798052 -420.63295553 962.75510262 -424.84699059 959.10885334 C-428.06393976 956.27817948 -431.20872863 953.36915193 -434.36237144 950.46847248 C-439.18505087 946.0344617 -444.05171911 941.65066131 -448.92902184 937.27682209 C-454.33195489 932.43161116 -459.71266087 927.56473611 -465.05402184 922.65182209 C-468.291194 919.67463928 -471.54039912 916.71729353 -474.86652184 913.83932209 C-479.05012041 910.2147012 -483.09336793 906.44297142 -487.15143394 902.67940998 C-490.04266312 900.00281171 -492.94791587 897.3537103 -495.92902184 894.77682209 C-499.5025397 891.68784902 -502.96613297 888.48839996 -506.42902184 885.27682209 C-510.51470914 881.48798052 -514.63295553 877.75510262 -518.84699059 874.10885334 C-522.06393976 871.27817948 -525.20872863 868.36915193 -528.36237144 865.46847248 C-533.18505087 861.0344617 -538.05171911 856.65066131 -542.92902184 852.27682209 C-548.33195489 847.43161116 -553.71266087 842.56473611 -559.05402184 837.65182209 C-562.291194 834.67463928 -565.54039912 831.71729353 -568.86652184 828.83932209 C-573.04934194 825.21537565 -577.09173991 821.44426463 -581.14923668 817.68160725 C-584.66384213 814.42817422 -588.2251085 811.24273447 -591.84699059 808.10885334 C-595.06393976 805.27817948 -598.20872863 802.36915193 -601.36237144 799.46847248 C-606.18506066 795.0344527 -611.05251852 790.651563 -615.92902184 786.27682209 C-618.432146 784.02479502 -620.93448798 781.77190086 -623.43683434 779.51900959 C-625.07642062 778.04389591 -626.71701838 776.56990557 -628.35870934 775.09713459 C-632.94932794 770.97584441 -637.5134929 766.82808421 -642.05402184 762.65182209 C-645.31292678 759.65502198 -648.58401733 756.67767662 -651.92902184 753.77682209 C-655.80719196 750.41359571 -659.58429995 746.94346538 -663.3621273 743.46871662 C-668.18487075 739.03458581 -673.05243304 734.65163969 -677.92902184 730.27682209 C-680.432146 728.02479502 -682.93448798 725.77190086 -685.43683434 723.51900959 C-687.07642062 722.04389591 -688.71701838 720.56990557 -690.35870934 719.09713459 C-694.94932794 714.97584441 -699.5134929 710.82808421 -704.05402184 706.65182209 C-707.31292678 703.65502198 -710.58401733 700.67767662 -713.92902184 697.77682209 C-717.2740301 694.8759643 -720.54499183 691.89848993 -723.80402184 688.90182209 C-727.66927406 685.34930835 -731.53769553 681.80082555 -735.42902184 678.27682209 C-736.20245934 677.57557209 -736.97589684 676.87432209 -737.77277184 676.15182209 C-739.76239138 674.42171814 -741.79752026 672.82700506 -743.92902184 671.27682209 C-742.52223378 668.05134056 -740.86623628 666.02065334 -738.29620934 663.63229084 C-737.57175621 662.9548885 -736.84730309 662.27748615 -736.10089684 661.57955647 C-735.34292809 660.88152912 -734.58495934 660.18350178 -733.80402184 659.46432209 C-733.06925621 658.77789631 -732.33449059 658.09147053 -731.57745934 657.38424397 C-727.37262986 653.47182781 -723.09905864 649.65027541 -718.76447105 645.88253498 C-716.15342829 643.59830669 -713.60405343 641.2540673 -711.05402184 638.90182209 C-704.91587824 633.25333097 -698.71734103 627.67408898 -692.50714684 622.10494709 C-687.91454034 617.98037693 -683.34725597 613.83057238 -678.80402184 609.65182209 C-674.9326392 606.09180419 -671.01954268 602.58976341 -667.04620934 599.14400959 C-663.82013666 596.29887538 -660.66166744 593.3804933 -657.49591637 590.46871662 C-651.87493188 585.30066636 -646.1917885 580.20278703 -640.50714684 575.10494709 C-635.91454079 570.98037733 -631.34722735 566.83060316 -626.80402184 562.65182209 C-623.56684967 559.67463928 -620.31764455 556.71729353 -616.99152184 553.83932209 C-612.80792326 550.2147012 -608.76467574 546.44297142 -604.70660973 542.67940998 C-601.21830848 539.45006338 -597.68168004 536.29183172 -594.08527184 533.18307209 C-591.15661821 530.59397251 -588.29504006 527.93487528 -585.42902184 525.27682209 C-581.3688722 521.51128649 -577.27490781 517.80462183 -573.08527184 514.18307209 C-570.15661771 511.59397207 -567.29505511 508.93485975 -564.42902184 506.27682209 C-560.34333453 502.48798052 -556.22508815 498.75510262 -552.01105309 495.10885334 C-548.79410391 492.27817948 -545.64931504 489.36915193 -542.49567223 486.46847248 C-536.87473684 481.30053866 -531.19170311 476.20271046 -525.50714684 471.10494709 C-520.91454079 466.98037733 -516.34722735 462.83060316 -511.80402184 458.65182209 C-508.56684967 455.67463928 -505.31764455 452.71729353 -501.99152184 449.83932209 C-497.80792326 446.2147012 -493.76467574 442.44297142 -489.70660973 438.67940998 C-486.21830848 435.45006338 -482.68168004 432.29183172 -479.08527184 429.18307209 C-476.15661771 426.59397207 -473.29505511 423.93485975 -470.42902184 421.27682209 C-466.34333453 417.48798052 -462.22508815 413.75510262 -458.01105309 410.10885334 C-454.79410391 407.27817948 -451.64931504 404.36915193 -448.49567223 401.46847248 C-442.87473684 396.30053866 -437.19170311 391.20271046 -431.50714684 386.10494709 C-426.91454079 381.98037733 -422.34722735 377.83060316 -417.80402184 373.65182209 C-414.56684967 370.67463928 -411.31764455 367.71729353 -407.99152184 364.83932209 C-403.80792326 361.2147012 -399.76467574 357.44297142 -395.70660973 353.67940998 C-392.21830848 350.45006338 -388.68168004 347.29183172 -385.08527184 344.18307209 C-382.15661771 341.59397207 -379.29505511 338.93485975 -376.42902184 336.27682209 C-372.34333453 332.48798052 -368.22508815 328.75510262 -364.01105309 325.10885334 C-360.79410391 322.27817948 -357.64931504 319.36915193 -354.49567223 316.46847248 C-348.87473684 311.30053866 -343.19170311 306.20271046 -337.50714684 301.10494709 C-332.91454079 296.98037733 -328.34722735 292.83060316 -323.80402184 288.65182209 C-320.56684967 285.67463928 -317.31764455 282.71729353 -313.99152184 279.83932209 C-309.80792326 276.2147012 -305.76467574 272.44297142 -301.70660973 268.67940998 C-298.21830848 265.45006338 -294.68168004 262.29183172 -291.08527184 259.18307209 C-288.15661771 256.59397207 -285.29505511 253.93485975 -282.42902184 251.27682209 C-278.34333453 247.48798052 -274.22508815 243.75510262 -270.01105309 240.10885334 C-266.79410391 237.27817948 -263.64931504 234.36915193 -260.49567223 231.46847248 C-254.87473684 226.30053866 -249.19170311 221.20271046 -243.50714684 216.10494709 C-238.91454079 211.98037733 -234.34722735 207.83060316 -229.80402184 203.65182209 C-226.56684967 200.67463928 -223.31764455 197.71729353 -219.99152184 194.83932209 C-215.80792326 191.2147012 -211.76467574 187.44297142 -207.70660973 183.67940998 C-204.21830848 180.45006338 -200.68168004 177.29183172 -197.08527184 174.18307209 C-194.15661771 171.59397207 -191.29505511 168.93485975 -188.42902184 166.27682209 C-184.34333453 162.48798052 -180.22508815 158.75510262 -176.01105309 155.10885334 C-172.79410391 152.27817948 -169.64931504 149.36915193 -166.49567223 146.46847248 C-160.87473684 141.30053866 -155.19170311 136.20271046 -149.50714684 131.10494709 C-144.91454079 126.98037733 -140.34722735 122.83060316 -135.80402184 118.65182209 C-132.56684967 115.67463928 -129.31764455 112.71729353 -125.99152184 109.83932209 C-121.80792326 106.2147012 -117.76467574 102.44297142 -113.70660973 98.67940998 C-110.21830848 95.45006338 -106.68168004 92.29183172 -103.08527184 89.18307209 C-100.15661771 86.59397207 -97.29505511 83.93485975 -94.42902184 81.27682209 C-90.34333453 77.48798052 -86.22508815 73.75510262 -82.01105309 70.10885334 C-78.79410391 67.27817948 -75.64931504 64.36915193 -72.49567223 61.46847248 C-66.87473684 56.30053866 -61.19170311 51.20271046 -55.50714684 46.10494709 C-50.91454079 41.98037733 -46.34722735 37.83060316 -41.80402184 33.65182209 C-38.56684967 30.67463928 -35.31764455 27.71729353 -31.99152184 24.83932209 C-27.81615796 21.22183564 -23.78033541 17.45810825 -19.73077965 13.70138264 C-16.01567016 10.26136557 -12.25495878 6.8850162 -8.41730309 3.58150959 C-4.36024438 0.02492794 -4.36024438 0.02492794 0 0 Z " fill="#676767" transform="translate(747.9290218353271,12.723177909851074)"/>
<path d="M0 0 C0.99 0.495 0.99 0.495 2 1 C0.02 2.98 -1.96 4.96 -4 7 C-2.51407301 10.57101809 -0.53257153 12.54542756 2.375 15.0625 C6.33724961 18.5380571 10.25270003 22.05028606 14.125 25.625 C17.36156694 28.60282458 20.61139591 31.55954468 23.9375 34.4375 C28.12109857 38.06212089 32.1643461 41.83385067 36.22241211 45.59741211 C39.11364128 48.27401038 42.01889404 50.92311179 45 53.5 C49.16566161 57.10082614 53.18600048 60.85390974 57.22265625 64.59765625 C60.11381617 67.27415929 63.01898132 69.92318724 66 72.5 C70.16566161 76.10082614 74.18600048 79.85390974 78.22265625 83.59765625 C81.11381617 86.27415929 84.01898132 88.92318724 87 91.5 C91.11204293 95.05683038 95.0876962 98.75583684 99.07543945 102.45043945 C104.00664258 107.01610385 108.99306529 111.51752326 114 116 C119.40337858 120.84470939 124.78364423 125.71209075 130.125 130.625 C133.97272929 134.16370382 137.86252043 137.64292308 141.81640625 141.0625 C144.13878174 143.12314086 146.40779114 145.23402473 148.67700195 147.3527832 C152.92376535 151.3162255 157.14204483 155.20360447 161.75 158.75 C167.4244842 163.16865573 172.56526799 168.13987532 177.76074219 173.10253906 C181.80847417 176.9649942 185.91900059 180.72115189 190.14697266 184.38549805 C192.76762534 186.66881507 195.32008892 189.01825377 197.875 191.375 C203.21518102 196.28918367 208.59708554 201.15480575 214 206 C219.40293359 210.84521141 224.78360539 215.71212216 230.125 220.625 C233.38390494 223.62180011 236.65499549 226.59914547 240 229.5 C243.87817013 232.86322638 247.65527811 236.33335671 251.43310547 239.80810547 C256.25583911 244.24222727 261.12261178 248.62608411 266 253 C271.40293359 257.84521141 276.78360539 262.71212216 282.125 267.625 C285.38390494 270.62180011 288.65499549 273.59914547 292 276.5 C295.87817013 279.86322638 299.65527811 283.33335671 303.43310547 286.80810547 C308.25583911 291.24222727 313.12261178 295.62608411 318 300 C323.40293359 304.84521141 328.78360539 309.71212216 334.125 314.625 C337.38390494 317.62180011 340.65499549 320.59914547 344 323.5 C347.87817013 326.86322638 351.65527811 330.33335671 355.43310547 333.80810547 C360.25583911 338.24222727 365.12261178 342.62608411 370 347 C375.40293359 351.84521141 380.78360539 356.71212216 386.125 361.625 C389.38390494 364.62180011 392.65499549 367.59914547 396 370.5 C399.87817013 373.86322638 403.65527811 377.33335671 407.43310547 380.80810547 C412.25583911 385.24222727 417.12261178 389.62608411 422 394 C427.40293305 398.84521093 432.78363904 403.71208598 438.125 408.625 C441.36217216 411.60218281 444.61137729 414.55952856 447.9375 417.4375 C451.52958888 420.54964381 455.01546426 423.7687771 458.5 427 C462.6414298 430.83933377 466.80733935 434.63615905 471.078125 438.33203125 C474.75017722 441.51895462 478.37021243 444.76511988 482 448 C485.02977429 446.64768813 487.08472613 445.14519457 489.390625 442.76953125 C490.01839844 442.13080078 490.64617188 441.49207031 491.29296875 440.83398438 C491.93878906 440.16689453 492.58460938 439.49980469 493.25 438.8125 C496.9802892 434.97922735 500.69585614 431.20585915 504.765625 427.73046875 C510.30578346 422.96067539 515.36943248 417.70028083 520.5 412.5 C526.15226717 406.77093076 531.78057137 401.10490672 537.90429688 395.87304688 C542.64236276 391.63837289 547.03822375 387.02240213 551.5 382.5 C557.1624023 376.7606579 562.80076792 371.08310033 568.93554688 365.84179688 C573.49192122 361.77683849 577.7142257 357.34695803 582 353 C592.50584869 342.34416979 592.50584869 342.34416979 596.96875 338.53125 C602.45082077 333.84190229 607.43725106 328.63154074 612.5 323.5 C618.15226717 317.77093076 623.78057137 312.10490672 629.90429688 306.87304688 C634.64236276 302.63837289 639.03822375 298.02240213 643.5 293.5 C649.1624023 287.7606579 654.80076792 282.08310033 660.93554688 276.84179688 C665.49192122 272.77683849 669.7142257 268.34695803 674 264 C684.50584869 253.34416979 684.50584869 253.34416979 688.96875 249.53125 C694.45082077 244.84190229 699.43725106 239.63154074 704.5 234.5 C710.15226717 228.77093076 715.78057137 223.10490672 721.90429688 217.87304688 C726.64236276 213.63837289 731.03822375 209.02240213 735.5 204.5 C737.48650296 202.48650477 739.476576 200.47663278 741.46875 198.46875 C742.33951172 197.58638672 743.21027344 196.70402344 744.10742188 195.79492188 C746.22653919 193.68667932 748.45737332 191.78517403 750.75670719 189.87637234 C753.68524326 187.34303002 755.99860349 184.8083853 758.25421047 181.66550541 C764.05384093 173.99172848 769.60122964 168.90708598 779.36807442 167.45924187 C787.82619186 166.63882801 796.347461 166.85018371 804.83130682 167.02688444 C809.29796269 167.10094429 813.76425583 167.07541078 818.23135376 167.06254578 C825.95323606 167.05367118 833.67265915 167.10657891 841.39392281 167.20258904 C852.55684513 167.34130344 863.71858967 167.38507843 874.88228034 167.40638489 C892.99795776 167.44350646 911.11232699 167.55640424 929.22729492 167.7175293 C946.81446836 167.87379627 964.40128529 167.99401836 981.98901367 168.06616211 C983.07480076 168.07062841 984.16058784 168.07509471 985.27927757 168.07969635 C990.72686056 168.10188349 996.17444606 168.12336616 1001.62203324 168.14449871 C1046.74892781 168.32046705 1091.87439609 168.61965417 1137 169 C1135.9254319 172.22370429 1135.3944369 172.74568921 1132.875 174.8125 C1128.66846559 178.37594911 1124.6417117 182.1013154 1120.625 185.875 C1115.6369895 190.55125984 1110.61299676 195.1771221 1105.515625 199.734375 C1101.96731202 202.9300606 1098.46422274 206.17375265 1094.95874023 209.41625977 C1089.81509423 214.173925 1084.6515806 218.90959798 1079.48388672 223.64111328 C1076.98835593 225.92642496 1074.49425473 228.2132958 1072 230.5 C1071.00000675 231.41667404 1070.00000676 232.3333407 1069 233.25 C1068.505 233.70375 1068.01 234.1575 1067.5 234.625 C1058 243.33333333 1048.5 252.04166667 1039 260.75 C1038.50483887 261.20391113 1038.00967773 261.65782227 1037.49951172 262.12548828 C1036.50119339 263.04058633 1035.50282114 263.95562555 1034.50439453 264.87060547 C1031.9782158 267.18578852 1029.45303168 269.5020401 1026.9296875 271.8203125 C1022.32650235 276.04766751 1017.71586224 280.26526083 1013.0625 284.4375 C1008.09487617 288.89643915 1003.19316748 293.42438331 998.29296875 297.95703125 C993.70429271 302.20071432 989.09368397 306.42040541 984.48388672 310.64111328 C981.98835593 312.92642496 979.49425473 315.2132958 977 317.5 C976.00000675 318.41667404 975.00000676 319.3333407 974 320.25 C973.505 320.70375 973.01 321.1575 972.5 321.625 C898.25 389.6875 898.25 389.6875 752 523.75 C751.50483887 524.20391113 751.00967773 524.65782227 750.49951172 525.12548828 C749.50119339 526.04058633 748.50282114 526.95562555 747.50439453 527.87060547 C744.9782158 530.18578852 742.45303168 532.5020401 739.9296875 534.8203125 C735.32650235 539.04766751 730.71586224 543.26526083 726.0625 547.4375 C721.09487617 551.89643915 716.19316748 556.42438331 711.29296875 560.95703125 C706.70429271 565.20071432 702.09368397 569.42040541 697.48388672 573.64111328 C694.98835593 575.92642496 692.49425473 578.2132958 690 580.5 C689.00000675 581.41667404 688.00000676 582.3333407 687 583.25 C686.505 583.70375 686.01 584.1575 685.5 584.625 C681.00000001 588.74999999 681.00000001 588.74999999 679.49731445 590.12744141 C678.5062392 591.03594052 677.51519063 591.94446874 676.52416992 592.85302734 C673.88784941 595.26990796 671.25094738 597.68615044 668.61328125 600.1015625 C667.78473633 600.86049805 667.78473633 600.86049805 666.93945312 601.63476562 C665.87451789 602.6102105 664.80942006 603.5854779 663.74414062 604.56054688 C661.339439 606.74588464 661.339439 606.74588464 659 609 C657.20362388 609.10829003 655.40296427 609.1458179 653.60335922 609.15656757 C652.42503076 609.16595901 651.2467023 609.17535044 650.03266692 609.18502647 C648.7215249 609.19029906 647.41038288 609.19557166 646.05950928 609.20100403 C644.66547648 609.21002317 643.27144627 609.21944931 641.87741876 609.22925013 C638.02825834 609.25490615 634.17908863 609.2740357 630.32988548 609.29197419 C627.03254145 609.30811157 623.7352233 609.32791574 620.4378992 609.34765974 C589.15893499 609.53403331 557.87934449 609.62793836 526.59994125 609.70387745 C522.52496037 609.713946 518.44997999 609.72419691 514.375 609.73461914 C513.36216651 609.73720136 512.34933303 609.73978359 511.30580762 609.74244406 C494.9152576 609.78552809 478.52526248 609.87391475 462.13501212 609.97996906 C445.3079198 610.08794623 428.48111528 610.15031552 411.65368485 610.16973227 C402.20551307 610.18187591 392.75836344 610.21454514 383.31053925 610.29932594 C375.25950881 610.37155517 367.20962446 610.4029623 359.15827569 610.38152973 C355.0525037 610.37188209 350.94921398 610.38139546 346.843853 610.44392395 C319.64293664 610.837493 319.64293664 610.837493 312.34282899 604.78162736 C309.93249402 602.35027726 307.99196889 599.78707679 306 597 C304.70477436 595.79116608 303.37992582 594.61116768 302 593.5 C297.83433839 589.89917386 293.81399952 586.14609026 289.77734375 582.40234375 C286.88618383 579.72584071 283.98101868 577.07681276 281 574.5 C276.83433839 570.89917386 272.81399952 567.14609026 268.77734375 563.40234375 C265.88618383 560.72584071 262.98101868 558.07681276 260 555.5 C256.42648214 552.41102693 252.96288886 549.21157787 249.5 546 C245.41431269 542.21115843 241.29606631 538.47828053 237.08203125 534.83203125 C233.86508207 532.00135739 230.7202932 529.09232984 227.56665039 526.19165039 C222.74397097 521.75763961 217.87730273 517.37383922 213 513 C207.59706695 508.15478907 202.21636096 503.28791402 196.875 498.375 C193.63782784 495.39781719 190.38862271 492.44047144 187.0625 489.5625 C182.87890143 485.93787911 178.8356539 482.16614933 174.77758789 478.40258789 C171.88635872 475.72598962 168.98110596 473.07688821 166 470.5 C162.42648214 467.41102693 158.96288886 464.21157787 155.5 461 C151.41431269 457.21115843 147.29606631 453.47828053 143.08203125 449.83203125 C139.86508207 447.00135739 136.7202932 444.09232984 133.56665039 441.19165039 C128.74397097 436.75763961 123.87730273 432.37383922 119 428 C113.59706695 423.15478907 108.21636096 418.28791402 102.875 413.375 C99.63782784 410.39781719 96.38862271 407.44047144 93.0625 404.5625 C88.87890143 400.93787911 84.8356539 397.16614933 80.77758789 393.40258789 C77.88635872 390.72598962 74.98110596 388.07688821 72 385.5 C68.42648214 382.41102693 64.96288886 379.21157787 61.5 376 C57.41431269 372.21115843 53.29606631 368.47828053 49.08203125 364.83203125 C45.86508207 362.00135739 42.7202932 359.09232984 39.56665039 356.19165039 C34.74397097 351.75763961 29.87730273 347.37383922 25 343 C19.59706695 338.15478907 14.21636096 333.28791402 8.875 328.375 C5.63782784 325.39781719 2.38862271 322.44047144 -0.9375 319.5625 C-5.12032011 315.93855356 -9.16271807 312.16744254 -13.22021484 308.40478516 C-16.73482029 305.15135213 -20.29608667 301.96591238 -23.91796875 298.83203125 C-27.13491793 296.00135739 -30.2797068 293.09232984 -33.43334961 290.19165039 C-38.25603882 285.75763061 -43.12349669 281.37474091 -48 277 C-50.50312417 274.74797293 -53.00546614 272.49507877 -55.5078125 270.2421875 C-57.14739879 268.76707382 -58.78799655 267.29308348 -60.4296875 265.8203125 C-65.0203061 261.69902232 -69.58447107 257.55126212 -74.125 253.375 C-77.38390494 250.37819989 -80.65499549 247.40085453 -84 244.5 C-87.87817013 241.13677362 -91.65527811 237.66664329 -95.43310547 234.19189453 C-100.25584891 229.75776372 -105.1234112 225.3748176 -110 221 C-112.50312417 218.74797293 -115.00546614 216.49507877 -117.5078125 214.2421875 C-119.14739879 212.76707382 -120.78799655 211.29308348 -122.4296875 209.8203125 C-127.0203061 205.69902232 -131.58447107 201.55126212 -136.125 197.375 C-139.38390494 194.37819989 -142.65499549 191.40085453 -146 188.5 C-149.34500826 185.59914221 -152.61597 182.62166784 -155.875 179.625 C-159.74025223 176.07248626 -163.6086737 172.52400346 -167.5 169 C-168.2734375 168.29875 -169.046875 167.5975 -169.84375 166.875 C-171.83336954 165.14489605 -173.86849842 163.55018297 -176 162 C-174.59321194 158.77451847 -172.93721445 156.74383125 -170.3671875 154.35546875 C-169.64273438 153.67806641 -168.91828125 153.00066406 -168.171875 152.30273438 C-167.03492188 151.25569336 -167.03492188 151.25569336 -165.875 150.1875 C-164.77285156 149.15786133 -164.77285156 149.15786133 -163.6484375 148.10742188 C-159.44360803 144.19500572 -155.1700368 140.37345332 -150.83544922 136.60571289 C-148.22440645 134.3214846 -145.67503159 131.97724521 -143.125 129.625 C-136.9868564 123.97650888 -130.7883192 118.39726689 -124.578125 112.828125 C-119.9855185 108.70355484 -115.41823413 104.55375029 -110.875 100.375 C-107.00361736 96.8149821 -103.09052085 93.31294132 -99.1171875 89.8671875 C-95.89111482 87.02205329 -92.7326456 84.10367121 -89.56689453 81.19189453 C-83.94591004 76.02384427 -78.26276666 70.92596494 -72.578125 65.828125 C-67.98551896 61.70355524 -63.41820551 57.55378107 -58.875 53.375 C-55.63782784 50.39781719 -52.38862271 47.44047144 -49.0625 44.5625 C-44.87890143 40.93787911 -40.8356539 37.16614933 -36.77758789 33.40258789 C-33.28928664 30.17324129 -29.7526582 27.01500963 -26.15625 23.90625 C-22.64854474 20.8052352 -19.23137106 17.60635245 -15.79931641 14.42211914 C-12.11872185 11.01382172 -8.39325419 7.66932074 -4.5859375 4.40234375 C-2.99155649 2.99253394 -1.48872735 1.52030642 0 0 Z " fill="#676767" transform="translate(180,522)"/>
<path d="M0 0 C1.57285076 -0.01614868 1.57285076 -0.01614868 3.17747629 -0.03262359 C4.33853155 -0.03430122 5.49958682 -0.03597886 6.69582558 -0.03770733 C7.92230045 -0.0471774 9.14877532 -0.05664748 10.4124161 -0.06640452 C13.82804741 -0.09051353 17.24349941 -0.10551935 20.65918374 -0.11655867 C24.33907221 -0.13050919 28.01888691 -0.15576552 31.69872475 -0.17921734 C40.5937945 -0.23306786 49.488896 -0.26685321 58.38407463 -0.29666975 C60.89697826 -0.30517552 63.4098799 -0.31413226 65.92278147 -0.32322764 C81.52890157 -0.37944956 97.13503041 -0.42818712 112.7412262 -0.45737457 C116.35781689 -0.46425379 119.9744074 -0.47121842 123.5909977 -0.47830486 C124.48988463 -0.48005927 125.38877156 -0.48181369 126.31489749 -0.48362126 C140.86310152 -0.51325577 155.41072332 -0.58755124 169.95864885 -0.68012968 C184.89753488 -0.774414 199.83612262 -0.82702329 214.77530444 -0.83949202 C223.16200478 -0.84755964 231.54777313 -0.87396327 239.93417931 -0.94733906 C247.08015975 -1.00977349 254.22502993 -1.03452483 261.37126498 -1.01071946 C265.01508954 -0.99973448 268.65657932 -1.00624141 272.30005455 -1.06135464 C296.42909691 -1.40722559 296.42909691 -1.40722559 303.12977469 4.13363677 C305.34714799 6.34724989 307.21408391 8.75790621 309.07097816 11.27682209 C310.34982748 12.46009497 311.65561544 13.61643652 313.00847816 14.71432209 C317.19129827 18.33826853 321.23369623 22.10937955 325.29119301 25.87203693 C328.80579846 29.12546996 332.36706483 32.31090971 335.98894691 35.44479084 C339.20589609 38.2754647 342.35068496 41.18449225 345.50432777 44.0851717 C349.52061966 47.7777832 353.56451332 51.43822501 357.62566566 55.08150959 C359.32155409 56.60401645 361.01403183 58.13032764 362.70379066 59.65963459 C367.08878706 63.62576566 371.48927611 67.53911778 376.07097816 71.27682209 C375.49896088 74.8621535 374.25205352 76.41586745 371.60613441 78.85104084 C370.53721962 79.84551228 370.53721962 79.84551228 369.44671059 80.86007404 C368.68334389 81.5544759 367.91997719 82.24887775 367.13347816 82.96432209 C366.35657631 83.6825716 365.57967445 84.40082111 364.77923012 85.14083576 C362.55158892 87.19563672 360.31396633 89.23879846 358.07097816 91.27682209 C357.10418129 92.15596272 356.13738441 93.03510334 355.14129066 93.94088459 C353.58128336 95.34744855 352.0176106 96.74996034 350.44988441 98.14791584 C347.67879371 100.62779176 344.93519825 103.13689125 342.19597816 105.65182209 C341.44127235 106.3446529 341.44127235 106.3446529 340.67131996 107.05148029 C339.64850557 107.99073302 338.62580108 108.93010542 337.60320473 109.86959553 C335.09420705 112.17390761 332.58247349 114.475233 330.07097816 116.77682209 C329.07096465 117.69347401 328.07096466 118.61014069 327.07097816 119.52682209 C297.07097816 147.02682209 267.07097816 174.52682209 237.07097816 202.02682209 C236.32787392 202.70805134 236.32787392 202.70805134 235.56975746 203.40304279 C234.57396169 204.315788 233.5780316 205.22838668 232.58196449 206.14083576 C230.0164949 208.49129137 227.45370895 210.84457465 224.89519691 213.20260334 C219.69772916 217.98835075 214.47963336 222.72863477 209.07097816 227.27682209 C204.92409577 225.61605608 202.00376913 222.61703507 198.82097816 219.58932209 C197.64983329 218.49088687 196.47796193 217.39322568 195.30535316 216.29635334 C194.46327309 215.50672199 194.46327309 215.50672199 193.60418129 214.7011385 C191.79358968 213.01913349 189.94359851 211.38935627 188.07097816 209.77682209 C183.90531655 206.17599595 179.88497769 202.42291235 175.84832191 198.67916584 C172.36532055 195.45476319 168.8391292 192.29615016 165.23894691 189.20260334 C163.41629937 187.58356687 161.64034184 185.93449222 159.87175941 184.25729084 C159.29748207 183.71588459 158.72320473 183.17447834 158.13152504 182.61666584 C156.99041094 181.53802614 155.85471345 180.45361883 154.72527504 179.36275959 C151.68690912 176.49833179 149.0852455 174.50567944 145.07097816 173.27682209 C144.51410316 173.84529865 143.95722816 174.41377522 143.38347816 174.99947834 C139.15172984 179.28126423 134.86901549 183.41124115 130.30144691 187.33150959 C127.51232034 189.76405781 124.79178598 192.2685906 122.07097816 194.77682209 C118.79260207 197.79627235 115.50516307 200.79884825 112.13347816 203.71432209 C107.94987959 207.33894298 103.90663207 211.11067277 99.84856606 214.8742342 C96.36026481 218.1035808 92.82363636 221.26181246 89.22722816 224.37057209 C86.29857454 226.95967167 83.43699639 229.6187689 80.57097816 232.27682209 C76.51082853 236.04235769 72.41686414 239.74902235 68.22722816 243.37057209 C65.29857404 245.95967211 62.43701144 248.61878443 59.57097816 251.27682209 C55.48529086 255.06566366 51.36704447 258.79854156 47.15300941 262.44479084 C43.93606024 265.2754647 40.79127137 268.18449225 37.63762856 271.0851717 C32.01669317 276.25310552 26.33365944 281.35093372 20.64910316 286.44869709 C16.05649712 290.57326685 11.48918368 294.72304102 6.94597816 298.90182209 C3.708806 301.8790049 0.45960088 304.83635065 -2.86652184 307.71432209 C-6.45860775 310.82646333 -9.94454176 314.04554295 -13.42902184 317.27682209 C-17.51473063 321.06564145 -21.63295457 324.79854073 -25.84699059 328.44479084 C-29.06393976 331.2754647 -32.20872863 334.18449225 -35.36237144 337.0851717 C-40.98330683 342.25310552 -46.66634056 347.35093372 -52.35089684 352.44869709 C-56.94350288 356.57326685 -61.51081632 360.72304102 -66.05402184 364.90182209 C-69.291194 367.8790049 -72.54039912 370.83635065 -75.86652184 373.71432209 C-79.45860775 376.82646333 -82.94454176 380.04554295 -86.42902184 383.27682209 C-90.51473063 387.06564145 -94.63295457 390.79854073 -98.84699059 394.44479084 C-102.06393976 397.2754647 -105.20872863 400.18449225 -108.36237144 403.0851717 C-113.98330683 408.25310552 -119.66634056 413.35093372 -125.35089684 418.44869709 C-129.94350288 422.57326685 -134.51081632 426.72304102 -139.05402184 430.90182209 C-142.291194 433.8790049 -145.54039912 436.83635065 -148.86652184 439.71432209 C-152.45860775 442.82646333 -155.94454176 446.04554295 -159.42902184 449.27682209 C-163.51473063 453.06564145 -167.63295457 456.79854073 -171.84699059 460.44479084 C-175.06393976 463.2754647 -178.20872863 466.18449225 -181.36237144 469.0851717 C-186.98330683 474.25310552 -192.66634056 479.35093372 -198.35089684 484.44869709 C-202.94350288 488.57326685 -207.51081632 492.72304102 -212.05402184 496.90182209 C-215.291194 499.8790049 -218.54039912 502.83635065 -221.86652184 505.71432209 C-225.45860775 508.82646333 -228.94454176 512.04554295 -232.42902184 515.27682209 C-236.51473063 519.06564145 -240.63295457 522.79854073 -244.84699059 526.44479084 C-248.06393976 529.2754647 -251.20872863 532.18449225 -254.36237144 535.0851717 C-259.98330683 540.25310552 -265.66634056 545.35093372 -271.35089684 550.44869709 C-275.94350288 554.57326685 -280.51081632 558.72304102 -285.05402184 562.90182209 C-288.291194 565.8790049 -291.54039912 568.83635065 -294.86652184 571.71432209 C-298.45860775 574.82646333 -301.94454176 578.04554295 -305.42902184 581.27682209 C-309.51473063 585.06564145 -313.63295457 588.79854073 -317.84699059 592.44479084 C-321.06393976 595.2754647 -324.20872863 598.18449225 -327.36237144 601.0851717 C-332.98330683 606.25310552 -338.66634056 611.35093372 -344.35089684 616.44869709 C-348.94350288 620.57326685 -353.51081632 624.72304102 -358.05402184 628.90182209 C-361.291194 631.8790049 -364.54039912 634.83635065 -367.86652184 637.71432209 C-371.45860972 640.82646504 -374.94450466 644.04558044 -378.42902184 647.27682209 C-382.54974119 651.09734106 -386.68592613 654.88464041 -390.95636559 658.53854084 C-392.50215372 659.90067098 -394.00720464 661.30905494 -395.49542809 662.73385334 C-396.38101402 663.57303303 -397.26659996 664.41221272 -398.17902184 665.27682209 C-398.98855309 666.06057209 -399.79808434 666.84432209 -400.63214684 667.65182209 C-402.92902184 669.27682209 -402.92902184 669.27682209 -404.86652184 669.34713459 C-407.91030044 667.76759796 -410.23121383 665.50956008 -412.67902184 663.15182209 C-413.75779451 662.13680321 -414.83722105 661.12247881 -415.91730309 660.10885334 C-416.43760094 659.61723713 -416.95789879 659.12562092 -417.49396324 658.61910725 C-419.24652812 656.9798419 -421.04653498 655.4031914 -422.86652184 653.83932209 C-427.05012041 650.2147012 -431.09336793 646.44297142 -435.15143394 642.67940998 C-438.04266312 640.00281171 -440.94791587 637.3537103 -443.92902184 634.77682209 C-448.09468345 631.17599595 -452.11502231 627.42291235 -456.15167809 623.67916584 C-459.04283801 621.00266281 -461.94800315 618.35363485 -464.92902184 615.77682209 C-469.04106476 612.21999171 -473.01671804 608.52098525 -477.00446129 604.82638264 C-481.93566441 600.26071824 -486.92208712 595.75929883 -491.92902184 591.27682209 C-497.33240042 586.4321127 -502.71266607 581.56473134 -508.05402184 576.65182209 C-511.291194 573.67463928 -514.54039912 570.71729353 -517.86652184 567.83932209 C-522.05012041 564.2147012 -526.09336793 560.44297142 -530.15143394 556.67940998 C-533.04266312 554.00281171 -535.94791587 551.3537103 -538.92902184 548.77682209 C-542.50254271 545.68784642 -545.96607774 542.48834427 -549.42902184 539.27682209 C-553.5704296 535.43746572 -557.73636226 531.64066211 -562.00714684 527.94479084 C-565.67919906 524.75786747 -569.29923427 521.51170221 -572.92902184 518.27682209 C-571.64181239 515.47799589 -570.26375868 513.32596233 -568.17120934 511.06979084 C-567.63230064 510.48689289 -567.09339195 509.90399494 -566.53815269 509.30343342 C-565.96588951 508.69652668 -565.39362633 508.08961994 -564.80402184 507.46432209 C-564.21435631 506.83485676 -563.62469078 506.20539143 -563.0171566 505.55685139 C-559.50612692 501.84447578 -555.93466371 498.3178533 -552.01105309 495.03854084 C-549.28886966 492.73515487 -546.67445814 490.31920027 -544.05402184 487.90182209 C-537.91548593 482.25375357 -531.7173469 476.67409424 -525.50714684 471.10494709 C-520.91454079 466.98037733 -516.34722735 462.83060316 -511.80402184 458.65182209 C-508.56684967 455.67463928 -505.31764455 452.71729353 -501.99152184 449.83932209 C-497.80792326 446.2147012 -493.76467574 442.44297142 -489.70660973 438.67940998 C-486.21830848 435.45006338 -482.68168004 432.29183172 -479.08527184 429.18307209 C-476.15661771 426.59397207 -473.29505511 423.93485975 -470.42902184 421.27682209 C-466.34333453 417.48798052 -462.22508815 413.75510262 -458.01105309 410.10885334 C-454.79410391 407.27817948 -451.64931504 404.36915193 -448.49567223 401.46847248 C-442.87473684 396.30053866 -437.19170311 391.20271046 -431.50714684 386.10494709 C-426.91454079 381.98037733 -422.34722735 377.83060316 -417.80402184 373.65182209 C-414.56684967 370.67463928 -411.31764455 367.71729353 -407.99152184 364.83932209 C-403.80792326 361.2147012 -399.76467574 357.44297142 -395.70660973 353.67940998 C-392.21830848 350.45006338 -388.68168004 347.29183172 -385.08527184 344.18307209 C-382.15661771 341.59397207 -379.29505511 338.93485975 -376.42902184 336.27682209 C-372.34333453 332.48798052 -368.22508815 328.75510262 -364.01105309 325.10885334 C-360.79410391 322.27817948 -357.64931504 319.36915193 -354.49567223 316.46847248 C-348.87473684 311.30053866 -343.19170311 306.20271046 -337.50714684 301.10494709 C-332.91454079 296.98037733 -328.34722735 292.83060316 -323.80402184 288.65182209 C-320.56684967 285.67463928 -317.31764455 282.71729353 -313.99152184 279.83932209 C-309.80792326 276.2147012 -305.76467574 272.44297142 -301.70660973 268.67940998 C-298.21830848 265.45006338 -294.68168004 262.29183172 -291.08527184 259.18307209 C-288.15661771 256.59397207 -285.29505511 253.93485975 -282.42902184 251.27682209 C-278.34333453 247.48798052 -274.22508815 243.75510262 -270.01105309 240.10885334 C-266.79410391 237.27817948 -263.64931504 234.36915193 -260.49567223 231.46847248 C-254.87473684 226.30053866 -249.19170311 221.20271046 -243.50714684 216.10494709 C-238.91454079 211.98037733 -234.34722735 207.83060316 -229.80402184 203.65182209 C-226.56684967 200.67463928 -223.31764455 197.71729353 -219.99152184 194.83932209 C-215.80792326 191.2147012 -211.76467574 187.44297142 -207.70660973 183.67940998 C-204.21830848 180.45006338 -200.68168004 177.29183172 -197.08527184 174.18307209 C-194.15661771 171.59397207 -191.29505511 168.93485975 -188.42902184 166.27682209 C-184.34333453 162.48798052 -180.22508815 158.75510262 -176.01105309 155.10885334 C-172.79410391 152.27817948 -169.64931504 149.36915193 -166.49567223 146.46847248 C-160.87473684 141.30053866 -155.19170311 136.20271046 -149.50714684 131.10494709 C-144.91454079 126.98037733 -140.34722735 122.83060316 -135.80402184 118.65182209 C-132.56684967 115.67463928 -129.31764455 112.71729353 -125.99152184 109.83932209 C-121.80792326 106.2147012 -117.76467574 102.44297142 -113.70660973 98.67940998 C-110.21830848 95.45006338 -106.68168004 92.29183172 -103.08527184 89.18307209 C-100.15661771 86.59397207 -97.29505511 83.93485975 -94.42902184 81.27682209 C-90.34333453 77.48798052 -86.22508815 73.75510262 -82.01105309 70.10885334 C-78.79410391 67.27817948 -75.64931504 64.36915193 -72.49567223 61.46847248 C-66.87473684 56.30053866 -61.19170311 51.20271046 -55.50714684 46.10494709 C-50.91454079 41.98037733 -46.34722735 37.83060316 -41.80402184 33.65182209 C-38.56684967 30.67463928 -35.31764455 27.71729353 -31.99152184 24.83932209 C-27.81615796 21.22183564 -23.78033541 17.45810825 -19.73077965 13.70138264 C-16.01567016 10.26136557 -12.25495878 6.8850162 -8.41730309 3.58150959 C-4.36024438 0.02492794 -4.36024438 0.02492794 0 0 Z " fill="#19191A" transform="translate(747.9290218353271,12.723177909851074)"/>
<path d="M0 0 C1.42106197 -0.00480734 2.84211425 -0.0144581 4.26311517 -0.02848083 C8.13661543 -0.05289996 12.00672466 -0.00934463 15.87979317 0.04607785 C20.06775262 0.09383527 24.2555397 0.07748823 28.44369507 0.06915283 C35.68927643 0.06340066 42.93376343 0.09774417 50.17906952 0.15976906 C60.65420772 0.24938492 71.12881984 0.27783682 81.60429981 0.29163697 C98.60207966 0.3156781 115.59927696 0.38878952 132.59674072 0.4929657 C149.10257057 0.59402314 165.60824186 0.67184225 182.11431885 0.71855164 C183.64191856 0.72288657 183.64191856 0.72288657 185.20037887 0.72730909 C190.30968263 0.74166509 195.41898751 0.75556574 200.52829313 0.76924002 C242.87703321 0.88316858 285.22513807 1.07682023 327.57330322 1.32279968 C326.49873513 4.54650397 325.96774012 5.0684889 323.44830322 7.13529968 C319.24176881 10.6987488 315.21501492 14.42411508 311.19830322 18.19779968 C306.21029272 22.87405953 301.18629998 27.49992178 296.08892822 32.05717468 C292.54061524 35.25286029 289.03752597 38.49655233 285.53204346 41.73905945 C280.38839745 46.49672469 275.22488383 51.23239766 270.05718994 55.96391296 C267.56165915 58.24922464 265.06755795 60.53609549 262.57330322 62.82279968 C261.57330998 63.73947372 260.57330998 64.65614039 259.57330322 65.57279968 C258.83080322 66.25342468 258.83080322 66.25342468 258.07330322 66.94779968 C208.57330322 112.32279968 159.07330322 157.69779968 109.57330322 203.07279968 C109.07814209 203.52671082 108.58298096 203.98062195 108.07281494 204.44828796 C107.07449661 205.36338601 106.07612436 206.27842524 105.07769775 207.19340515 C102.55151902 209.50858821 100.0263349 211.82483979 97.50299072 214.14311218 C92.89980558 218.37046719 88.28916547 222.58806051 83.63580322 226.76029968 C78.66817939 231.21923884 73.76647071 235.747183 68.86627197 240.27983093 C64.27759594 244.523514 59.66698719 248.7432051 55.05718994 252.96391296 C52.56165915 255.24922464 50.06755795 257.53609549 47.57330322 259.82279968 C46.57330998 260.73947372 45.57330998 261.65614039 44.57330322 262.57279968 C44.07830322 263.02654968 43.58330322 263.48029968 43.07330322 263.94779968 C-31.17669678 332.01029968 -31.17669678 332.01029968 -129.42669678 422.07279968 C-129.89395367 422.50207177 -130.36121057 422.93134386 -130.84262677 423.37362419 C-132.31223091 424.71808137 -133.79162768 426.05181302 -135.27181697 427.38460749 C-137.33409017 429.2675128 -139.21931289 431.17118802 -141.13311505 433.21965438 C-147.39069514 439.68621115 -151.52768923 442.57326667 -160.87453151 442.74269408 C-162.16249983 442.71065282 -163.45046815 442.67861157 -164.77746582 442.64559937 C-166.19027833 442.65040681 -167.60308109 442.66005776 -169.01583219 442.67408019 C-172.86653703 442.69849742 -176.71383028 442.65494695 -180.56410074 442.59952152 C-184.72751997 442.55176116 -188.890766 442.56811134 -193.05438232 442.57644653 C-200.25740455 442.58219853 -207.4593259 442.54785696 -214.66207123 442.48583031 C-225.07567161 442.39621193 -235.4887428 442.3677623 -245.90268698 442.3539624 C-262.80064001 442.32992165 -279.69800702 442.25681131 -296.59564209 442.15263367 C-313.00446655 442.05157521 -329.41313152 441.97375661 -345.82220459 441.92704773 C-347.34084331 441.92271279 -347.34084331 441.92271279 -348.8901616 441.91829028 C-353.96949722 441.90393427 -359.04883395 441.89003362 -364.12817144 441.87635934 C-406.22808741 441.76243198 -448.32735847 441.56878143 -490.42669678 441.32279968 C-489.46841487 440.19697559 -488.50902396 439.0720954 -487.54916382 437.94761658 C-487.01502176 437.32109821 -486.48087971 436.69457985 -485.93055153 436.04907608 C-484.29565634 434.17237823 -482.58728972 432.43709356 -480.76263428 430.74467468 C-480.12164795 430.14687195 -479.48066162 429.54906921 -478.82025146 428.93315125 C-478.15412842 428.31923523 -477.48800537 427.70531921 -476.80169678 427.07279968 C-476.09947998 426.42021179 -475.39726318 425.7676239 -474.67376709 425.09526062 C-472.59558309 423.16653182 -470.51226962 421.24353344 -468.42669678 419.32279968 C-467.86047607 418.80072937 -467.29425537 418.27865906 -466.71087646 417.74076843 C-463.29197258 414.59138708 -459.86048292 411.45595338 -456.42669678 408.32279968 C-454.44697743 406.5108976 -452.46764829 404.69858453 -450.48919678 402.88529968 C-449.99572754 402.43308044 -449.5022583 401.98086121 -448.99383545 401.51493835 C-443.12406061 396.13280342 -437.27569884 390.72748587 -431.42669678 385.32279968 C-424.61043376 379.02432994 -417.78840221 372.73254707 -410.94378662 366.46488953 C-405.08895543 361.10131917 -399.25839357 355.71149518 -393.42669678 350.32279968 C-386.61043376 344.02432994 -379.78840221 337.73254707 -372.94378662 331.46488953 C-367.08895543 326.10131917 -361.25839357 320.71149518 -355.42669678 315.32279968 C-348.61119515 309.02503349 -341.79026235 302.7335795 -334.94598389 296.46708679 C-331.26442167 293.09478788 -327.59362208 289.71100382 -323.92669678 286.32279968 C-319.76824779 282.48043233 -315.60260629 278.64618394 -311.42669678 274.82279968 C-305.07636524 269.0078493 -298.75067508 263.16638082 -292.42669678 257.32279968 C-285.61043376 251.02432994 -278.78840221 244.73254707 -271.94378662 238.46488953 C-266.08895543 233.10131917 -260.25839357 227.71149518 -254.42669678 222.32279968 C-247.61043376 216.02432994 -240.78840221 209.73254707 -233.94378662 203.46488953 C-228.08895543 198.10131917 -222.25839357 192.71149518 -216.42669678 187.32279968 C-209.61043376 181.02432994 -202.78840221 174.73254707 -195.94378662 168.46488953 C-190.08895543 163.10131917 -184.25839357 157.71149518 -178.42669678 152.32279968 C-171.61043376 146.02432994 -164.78840221 139.73254707 -157.94378662 133.46488953 C-152.08895543 128.10131917 -146.25839357 122.71149518 -140.42669678 117.32279968 C-133.61043376 111.02432994 -126.78840221 104.73254707 -119.94378662 98.46488953 C-114.08895543 93.10131917 -108.25839357 87.71149518 -102.42669678 82.32279968 C-95.61043376 76.02432994 -88.78840221 69.73254707 -81.94378662 63.46488953 C-76.08895543 58.10131917 -70.25839357 52.71149518 -64.42669678 47.32279968 C-57.61119515 41.02503349 -50.79026235 34.7335795 -43.94598389 28.46708679 C-39.29143981 24.20353969 -34.65477243 19.92080513 -30.02044678 15.63529968 C-29.20576002 14.90631492 -29.20576002 14.90631492 -28.37461495 14.1626032 C-26.84264923 12.71566566 -25.38472735 11.1903116 -23.95793319 9.63956803 C-16.50512898 1.78116243 -11.0717954 -0.27378288 0 0 Z " fill="#686868" transform="translate(1943.4266967773438,689.6772003173828)"/>
<path d="M0 0 C1.55324601 0.00056958 1.55324601 0.00056958 3.13787073 0.00115067 C4.92261414 -0.00183591 4.92261414 -0.00183591 6.74341297 -0.00488281 C8.08068642 -0.00202923 9.41795968 0.00091638 10.75523275 0.00394398 C12.16265293 0.0035084 13.57007303 0.00263374 14.97749269 0.00135481 C18.86318027 -0.00089279 22.74884055 0.00313474 26.63452464 0.00813287 C30.81791358 0.01243341 35.00130085 0.01099124 39.18469137 0.0102306 C46.43874441 0.00970511 53.69278849 0.0128545 60.94683927 0.01846844 C71.43510344 0.02658009 81.92336325 0.02919831 92.41163021 0.03045643 C109.42630825 0.03264748 126.4409815 0.03930899 143.45565695 0.04875904 C159.98820878 0.0579318 176.52075933 0.0650133 193.0533132 0.06926686 C194.07161596 0.06952958 195.08991873 0.0697923 196.13907916 0.07006299 C201.24737682 0.07136798 206.35567448 0.0726317 211.46397215 0.07387489 C253.87241792 0.08424915 296.28085848 0.1018689 338.68929952 0.1241985 C338.68929952 2.1241985 338.68929952 2.1241985 337.46664327 3.3585735 C336.85949484 3.85872975 336.2523464 4.358886 335.62679952 4.8741985 C331.40205875 8.46110097 327.35234884 12.2057419 323.31429952 15.9991985 C318.32626964 20.67543823 313.30229688 25.30132006 308.20492452 29.8585735 C304.65661154 33.0542591 301.15352227 36.29795114 297.64803976 39.54045826 C292.50439376 44.2981235 287.34088013 49.03379647 282.17318624 53.76531178 C279.67765546 56.05062345 277.18355425 58.3374943 274.68929952 60.6241985 C273.68930628 61.54087253 272.68930628 62.4575392 271.68929952 63.3741985 C270.94679952 64.0548235 270.94679952 64.0548235 270.18929952 64.7491985 C231.93929952 99.8116985 231.93929952 99.8116985 193.68929952 134.8741985 C193.19413839 135.32810963 192.69897726 135.78202076 192.18881124 136.24968678 C191.19049291 137.16478482 190.19212066 138.07982405 189.19369406 138.99480397 C186.66751532 141.30998702 184.1423312 143.6262386 181.61898702 145.944511 C177.01580188 150.171866 172.40516177 154.38945933 167.75179952 158.5616985 C162.78417569 163.02063765 157.88246701 167.54858181 152.98226827 172.08122975 C148.39359224 176.32491281 143.78298349 180.54460391 139.17318624 184.76531178 C136.67765546 187.05062345 134.18355425 189.3374943 131.68929952 191.6241985 C130.68930628 192.54087253 129.68930628 193.4575392 128.68929952 194.3741985 C128.19429952 194.8279485 127.69929952 195.2816985 127.18929952 195.7491985 C77.68929952 241.1241985 28.18929952 286.4991985 -118.81338602 421.2516399 C-119.80446127 422.16013902 -120.79550984 423.06866723 -121.78653055 423.97722584 C-124.42285107 426.39410646 -127.05975309 428.81034894 -129.69741923 431.225761 C-130.24978251 431.73171803 -130.80214579 432.23767506 -131.37124735 432.75896412 C-132.43618259 433.734409 -133.50128042 434.7096764 -134.56655985 435.68474537 C-136.97126148 437.87008314 -136.97126148 437.87008314 -139.31070048 440.1241985 C-141.11952401 440.221692 -142.93220541 440.24791254 -144.74365431 440.24724633 C-146.52317263 440.2502329 -146.52317263 440.2502329 -148.33864081 440.25327981 C-149.67198401 440.25042622 -151.00532702 440.24748061 -152.33866984 440.24445301 C-153.74196521 440.24488859 -155.14526051 440.24576325 -156.54855537 440.24704218 C-160.42284141 440.24928977 -164.29710006 440.24526227 -168.17138261 440.24026412 C-172.34250149 440.23596357 -176.5136187 440.23740576 -180.68473917 440.23816639 C-187.9175113 440.23869188 -195.15027444 440.2355425 -202.3830443 440.22992855 C-212.84053938 440.22181689 -223.29803009 440.21919868 -233.75552797 440.21794056 C-250.72029171 440.21574951 -267.68505066 440.209088 -284.6498118 440.19963795 C-301.13386104 440.19046519 -317.61790897 440.18338369 -334.10196024 440.17913014 C-335.11727601 440.17886741 -336.13259179 440.17860469 -337.17867471 440.17833401 C-342.27198829 440.17702901 -347.36530188 440.17576529 -352.45861548 440.1745221 C-394.74264714 440.16414785 -437.02667356 440.14652811 -479.31070048 440.1241985 C-479.31070048 438.1241985 -479.31070048 438.1241985 -478.08804423 436.8898235 C-477.48089579 436.38966725 -476.87374735 435.889511 -476.24820048 435.3741985 C-472.0234597 431.78729603 -467.9737498 428.0426551 -463.93570048 424.2491985 C-458.94632892 419.57170096 -453.92071435 414.94488859 -448.82241923 410.38591725 C-444.16892998 406.19560578 -439.58382405 401.93073681 -434.98843485 397.67693287 C-426.61079034 389.92346676 -418.21365422 382.1915419 -409.79458719 374.48308522 C-407.29905642 372.19777355 -404.80493839 369.91092101 -402.31070048 367.6241985 C-399.32310638 364.88516601 -396.33524751 362.14642636 -393.34585673 359.40935475 C-388.15773001 354.65812291 -382.97796487 349.89811775 -377.81070048 345.1241985 C-371.16806031 338.98721277 -364.50158411 332.87651242 -357.83120829 326.76970631 C-352.14747702 321.56555157 -346.47110863 316.35372217 -340.81070048 311.1241985 C-335.1518108 305.8960777 -329.47687216 300.6857576 -323.79458719 295.48308522 C-321.29905642 293.19777355 -318.80493839 290.91092101 -316.31070048 288.6241985 C-313.32310638 285.88516601 -310.33524751 283.14642636 -307.34585673 280.40935475 C-302.15773001 275.65812291 -296.97796487 270.89811775 -291.81070048 266.1241985 C-286.1518108 260.8960777 -280.47687216 255.6857576 -274.79458719 250.48308522 C-272.29905642 248.19777355 -269.80493839 245.91092101 -267.31070048 243.6241985 C-264.32310638 240.88516601 -261.33524751 238.14642636 -258.34585673 235.40935475 C-253.15773001 230.65812291 -247.97796487 225.89811775 -242.81070048 221.1241985 C-237.1518108 215.8960777 -231.47687216 210.6857576 -225.79458719 205.48308522 C-223.29905642 203.19777355 -220.80493839 200.91092101 -218.31070048 198.6241985 C-215.32310638 195.88516601 -212.33524751 193.14642636 -209.34585673 190.40935475 C-204.15773001 185.65812291 -198.97796487 180.89811775 -193.81070048 176.1241985 C-187.16806031 169.98721277 -180.50158411 163.87651242 -173.83120829 157.76970631 C-168.14747702 152.56555157 -162.47110863 147.35372217 -156.81070048 142.1241985 C-151.1518108 136.8960777 -145.47687216 131.6857576 -139.79458719 126.48308522 C-137.29905642 124.19777355 -134.80493839 121.91092101 -132.31070048 119.6241985 C-129.32310638 116.88516601 -126.33524751 114.14642636 -123.34585673 111.40935475 C-118.15773001 106.65812291 -112.97796487 101.89811775 -107.81070048 97.1241985 C-102.1518108 91.8960777 -96.47687216 86.6857576 -90.79458719 81.48308522 C-88.29905642 79.19777355 -85.80493839 76.91092101 -83.31070048 74.6241985 C-80.32310638 71.88516601 -77.33524751 69.14642636 -74.34585673 66.40935475 C-69.15773001 61.65812291 -63.97796487 56.89811775 -58.81070048 52.1241985 C-53.1518108 46.8960777 -47.47687216 41.6857576 -41.79458719 36.48308522 C-39.29905642 34.19777355 -36.80493839 31.91092101 -34.31070048 29.6241985 C-31.32310638 26.88516601 -28.33524751 24.14642636 -25.34585673 21.40935475 C-19.92932238 16.44901514 -14.5210166 11.47990726 -9.12320048 6.4991985 C-8.55802714 5.97785328 -7.9928538 5.45650807 -7.41055399 4.91936451 C-2.21169938 0.11887726 -2.21169938 0.11887726 0 0 Z " fill="#07090A" transform="translate(1433.3107004761696,690.8758015036583)"/>
<path d="M0 0 C2.93467272 1.63163271 5.24703131 3.813366 7.6484375 6.125 C8.72094781 7.13324494 9.79387046 8.14105141 10.8671875 9.1484375 C11.66576172 9.90398926 11.66576172 9.90398926 12.48046875 10.67480469 C14.6721471 12.73470491 16.90792369 14.7434639 19.1484375 16.75 C19.95796875 17.47703125 20.7675 18.2040625 21.6015625 18.953125 C22.80039063 20.02820313 22.80039063 20.02820313 24.0234375 21.125 C29.42637055 25.97021093 34.80707654 30.83708598 40.1484375 35.75 C43.38560966 38.72718281 46.63481479 41.68452856 49.9609375 44.5625 C54.14375761 48.18644644 58.18615557 51.95755746 62.24365234 55.72021484 C65.75825779 58.97364787 69.31952417 62.15908762 72.94140625 65.29296875 C76.15835543 68.12364261 79.3031443 71.03267016 82.45678711 73.93334961 C87.27946653 78.36736039 92.14613477 82.75116078 97.0234375 87.125 C102.42637055 91.97021093 107.80707654 96.83708598 113.1484375 101.75 C116.38560966 104.72718281 119.63481479 107.68452856 122.9609375 110.5625 C127.14375761 114.18644644 131.18615557 117.95755746 135.24365234 121.72021484 C138.75825779 124.97364787 142.31952417 128.15908762 145.94140625 131.29296875 C149.15835543 134.12364261 152.3031443 137.03267016 155.45678711 139.93334961 C160.27946653 144.36736039 165.14613477 148.75116078 170.0234375 153.125 C175.42637109 157.97021141 180.80704289 162.83712216 186.1484375 167.75 C189.40734244 170.74680011 192.67843299 173.72414547 196.0234375 176.625 C199.90160763 179.98822638 203.67871561 183.45835671 207.45654297 186.93310547 C212.27927661 191.36722727 217.14604928 195.75108411 222.0234375 200.125 C227.42637055 204.97021093 232.80707654 209.83708598 238.1484375 214.75 C241.38560966 217.72718281 244.63481479 220.68452856 247.9609375 223.5625 C252.14375761 227.18644644 256.18615557 230.95755746 260.24365234 234.72021484 C263.75825779 237.97364787 267.31952417 241.15908762 270.94140625 244.29296875 C274.15835543 247.12364261 277.3031443 250.03267016 280.45678711 252.93334961 C285.27946653 257.36736039 290.14613477 261.75116078 295.0234375 266.125 C300.42637055 270.97021093 305.80707654 275.83708598 311.1484375 280.75 C314.38560966 283.72718281 317.63481479 286.68452856 320.9609375 289.5625 C325.14375761 293.18644644 329.18615557 296.95755746 333.24365234 300.72021484 C336.75825779 303.97364787 340.31952417 307.15908762 343.94140625 310.29296875 C347.15835543 313.12364261 350.3031443 316.03267016 353.45678711 318.93334961 C358.27946653 323.36736039 363.14613477 327.75116078 368.0234375 332.125 C373.42637055 336.97021093 378.80707654 341.83708598 384.1484375 346.75 C387.38560966 349.72718281 390.63481479 352.68452856 393.9609375 355.5625 C398.14375761 359.18644644 402.18615557 362.95755746 406.24365234 366.72021484 C409.75825779 369.97364787 413.31952417 373.15908762 416.94140625 376.29296875 C420.15835543 379.12364261 423.3031443 382.03267016 426.45678711 384.93334961 C431.27946653 389.36736039 436.14613477 393.75116078 441.0234375 398.125 C449.88633127 406.07301441 449.88633127 406.07301441 454.109375 409.9609375 C454.89852295 410.68724365 454.89852295 410.68724365 455.70361328 411.42822266 C457.19173013 412.79969707 458.67795194 414.17322686 460.1640625 415.546875 C462.20723244 417.38907741 464.25561144 419.15245485 466.3828125 420.890625 C467.25421875 421.62796875 468.125625 422.3653125 469.0234375 423.125 C469.0234375 423.455 469.0234375 423.785 469.0234375 424.125 C425.91387662 424.37688437 382.80440078 424.57066013 339.69424956 424.68671862 C334.60248027 424.70047608 329.51071244 424.71471365 324.41894531 424.72924805 C323.40528402 424.73213346 322.39162272 424.73501888 321.34724441 424.73799173 C304.94308146 424.78583109 288.53934339 424.87254703 272.13543233 424.97368076 C255.29821613 425.07661864 238.46122215 425.13766143 221.6237042 425.15997344 C211.23727428 425.17505256 200.85204534 425.22264127 190.46598521 425.31208114 C183.33976564 425.37031546 176.21416513 425.38778166 169.08772501 425.37351515 C164.97817451 425.36648214 160.87071922 425.3771078 156.76154327 425.43626022 C152.99234768 425.49012002 149.2266384 425.49230112 145.45727625 425.45488784 C143.46172759 425.44809749 141.46621523 425.49526548 139.47127223 425.5448944 C131.03680474 425.39200533 126.7713583 423.20589306 121.0092328 417.37718059 C119.67319566 415.96679661 118.3481807 414.54599742 117.0234375 413.125 C115.3309572 411.56594601 113.62524944 410.02094031 111.8984375 408.5 C111.09148437 407.77554687 110.28453125 407.05109375 109.453125 406.3046875 C108.65132812 405.58539062 107.84953125 404.86609375 107.0234375 404.125 C104.52031333 401.87297293 102.01797136 399.62007877 99.515625 397.3671875 C97.87603871 395.89207382 96.23544095 394.41808348 94.59375 392.9453125 C90.00313186 388.82402273 85.43893782 384.67629287 80.8984375 380.5 C77.66126534 377.52281719 74.41206021 374.56547144 71.0859375 371.6875 C66.90233893 368.06287911 62.8590914 364.29114933 58.80102539 360.52758789 C55.90979622 357.85098962 53.00454346 355.20188821 50.0234375 352.625 C46.44991964 349.53602693 42.98632636 346.33657787 39.5234375 343.125 C35.43775019 339.33615843 31.31950381 335.60328053 27.10546875 331.95703125 C23.88851957 329.12635739 20.7437307 326.21732984 17.59008789 323.31665039 C12.76740847 318.88263961 7.90074023 314.49883922 3.0234375 310.125 C-2.37949555 305.27978907 -7.76020154 300.41291402 -13.1015625 295.5 C-16.33873466 292.52281719 -19.58793979 289.56547144 -22.9140625 286.6875 C-27.09688261 283.06355356 -31.13928057 279.29244254 -35.19677734 275.52978516 C-38.71138279 272.27635213 -42.27264917 269.09091238 -45.89453125 265.95703125 C-49.11148043 263.12635739 -52.2562693 260.21732984 -55.40991211 257.31665039 C-60.23259153 252.88263961 -65.09925977 248.49883922 -69.9765625 244.125 C-75.37949555 239.27978907 -80.76020154 234.41291402 -86.1015625 229.5 C-89.33873466 226.52281719 -92.58793979 223.56547144 -95.9140625 220.6875 C-100.09688261 217.06355356 -104.13928057 213.29244254 -108.19677734 209.52978516 C-111.71138279 206.27635213 -115.27264917 203.09091238 -118.89453125 199.95703125 C-122.11148043 197.12635739 -125.2562693 194.21732984 -128.40991211 191.31665039 C-133.23259647 186.88263507 -138.09966007 182.4992909 -142.9765625 178.125 C-149.999507 171.81663173 -156.9968141 165.48108267 -163.9765625 159.125 C-162.52500356 155.78921487 -160.69730312 153.60001397 -158.125 151.04296875 C-156.97064453 149.89151367 -156.97064453 149.89151367 -155.79296875 148.71679688 C-154.98730469 147.92337891 -154.18164062 147.12996094 -153.3515625 146.3125 C-152.56910156 145.53068359 -151.78664063 144.74886719 -150.98046875 143.94335938 C-147.44729442 140.43655202 -143.89374004 137.00480378 -140.109375 133.76953125 C-134.60477786 129.02851035 -129.57514304 123.79285922 -124.4765625 118.625 C-118.82429533 112.89593076 -113.19599113 107.22990672 -107.07226562 101.99804688 C-102.33419974 97.76337289 -97.93833875 93.14740213 -93.4765625 88.625 C-87.8141602 82.8856579 -82.17579458 77.20810033 -76.04101562 71.96679688 C-71.48464128 67.90183849 -67.2623368 63.47195803 -62.9765625 59.125 C-52.47071381 48.46916979 -52.47071381 48.46916979 -48.0078125 44.65625 C-42.52574173 39.96690229 -37.53931144 34.75654074 -32.4765625 29.625 C-26.70994268 23.7800243 -20.96685804 17.99231388 -14.71484375 12.65820312 C-11.5408374 9.8586582 -8.69042803 6.73815493 -5.84765625 3.60546875 C-2.5556016 0.16161907 -2.5556016 0.16161907 0 0 Z " fill="#1A1A1B" transform="translate(1302.9765625,246.875)"/>
</svg>
